<svg id="Capa_1" data-name="Capa 1" xmlns="http://www.w3.org/2000/svg" viewBox="0 0 1020.47 1020.47"><defs><style>.cls-1{fill:#066da5;}.cls-2{fill:#f8a934;}.cls-3{fill:#20396b;}.cls-4{fill:#07528b;}.cls-5{fill:#de862e;}.cls-6{fill:#39142a;}.cls-7{fill:#0f457e;}.cls-8{fill:#212e55;}.cls-9{fill:#c06728;}.cls-10{fill:#233551;}.cls-11{fill:#5d1337;}.cls-12{fill:#b33539;}.cls-13{fill:#ad2e42;}.cls-14{fill:#a52948;}.cls-15{fill:#e15255;}.cls-16{fill:#bf384e;}.cls-17{fill:#73182b;}.cls-18{fill:#863c2b;}.cls-19{fill:#1d2133;}.cls-20{fill:#7a1839;}.cls-21{fill:#972937;}.cls-22{fill:#9e5530;}.cls-23{fill:#8f213e;}.cls-24{fill:#3db1db;}.cls-25{fill:#d14f2c;}.cls-26{fill:#f7b183;}.cls-27{fill:#f8f5f0;}.cls-28{fill:#f5a57f;}.cls-29{fill:#e96859;}.cls-30{fill:#f0856b;}</style></defs><path class="cls-1" d="M609.12,921.31c-4.76,1-9.56,1.84-14.28,3-6.78,1.67-13.42,4.1-20.28,5.25-9.85,1.64-19.84,2.4-29.77,3.58-2.09.25-4.15.68-6.23,1l-39.88,2H479.75a10.4,10.4,0,0,0-2.67-.94q-16.65-1.1-33.3-2c-3-.17-6.09,0-9.14-.05-18.05-3.41-36.15-6.65-54.15-10.33-5.92-1.22-11.61-3.6-17.4-5.45.06-3.1.16-6.21.17-9.32,0-7.28.08-14.55,0-21.83,0-2.62.65-4,3.58-4,5.39.08,10.78-.23,16.17-.12,3.08.07,5.16-.42,5.24-4.12.15-6.9.5-13.81.77-20.72l.24-1.76c6.77,0,13.55-.2,20.32,0,3.42.11,4.67-.94,4.58-4.48-.2-7.09,0-14.2.05-21.3l119.24-.07c0,6.6.25,13.2,0,19.79-.13,3.77.84,5.31,4.94,5.12,6.58-.3,13.19,0,19.79.07.08.6.17,1.21.25,1.81,0,7,.13,13.93,0,20.9-.07,3,1,4.09,4,4,7-.14,13.93,0,20.9,0l.89.17c5.91.26,11.84.92,17.73.66,4.76-.21,6.2,1.94,6.23,6,0,5.63-.07,11.27.08,16.9C608.41,910.55,608.82,915.93,609.12,921.31Z"/><path class="cls-2" d="M795.18,807.65a392.63,392.63,0,0,1-56.52,49.7C728,865.1,716.72,872,705.72,879.3l-1.16-1q0-24.8,0-49.58c.07-6.29.21-12.59.19-18.88,0-2.88,1.1-4.18,4.1-4.26,5.43-.15,10.88-.46,16.28-1,1.24-.13,3.27-1.41,3.36-2.32.61-5.9.75-11.85,1.13-17.78.18-2.79-1-3.82-3.75-3.74a155.94,155.94,0,0,1-15.89,0c-5.09-.37-6.49,2-6.15,6.47s.58,9.21.94,13.81c.22,2.75-.87,3.85-3.69,3.8a83.66,83.66,0,0,0-12.87.41c-6.62.93-7.18.61-7.41-5.87-.21-5.9-.72-11.78-1.09-17.68l1-25.89q.66-10.86,1.34-21.72c6.06-.35,12.13-.59,18.18-1.14,1.2-.1,3.29-1.39,3.28-2.11-.09-7.69-.53-15.36-.87-23a20.1,20.1,0,0,0,1.15-4.43c.17-5.68.13-11.37.17-17.05l25.68-.94-.12.23q.19,7.73.38,15.46c.63,2.62,1.16,7.48,1.91,7.52,7.24.32,14.52-.17,21.79-.43h25.92l-.07,0c-.29,6.69-.68,13.38-.77,20.08,0,1.27,1.15,2.55,1.77,3.83,5.13,0,10.26.12,15.39.08,6.65-.06,6.53-.1,6.65,6.42.11,5.87.53,11.73.81,17.6a65.24,65.24,0,0,0-.86,7.34c-.08,12.1,0,24.2,0,36.3l0-.06-1,1.08.08-.08-1.07,1.08.07-.07-1.06,1.07.09-.07-1.07,1.09.08-.08-1.06,1.08.08-.08c-.36.37-.71.75-1.06,1.12l.07-.12-1,1.14.18,0-.71.39Z"/><path class="cls-3" d="M389.24,855.54l-.24,1.77c-6.79,0-13.6.38-20.37,0-4.6-.26-5.73,1.45-5.44,5.68.32,4.78-.06,9.6.11,14.4.11,3-1,4.12-4,4-6.62-.17-13.25-.06-19.88-.06-7.5-.31-15-.75-22.51-.79a4.44,4.44,0,0,0-3.23,2.85,88.17,88.17,0,0,0-.16,10.47l-4,2.32-19.28-9.8-1.79-.94,0,.06a84.38,84.38,0,0,0,1-9c.06-17.23,0-34.46-.05-51.69l.06-19q.16-8.57.32-17.15c.38-2.54.77-5.08,1.2-7.95,2.61,0,5.06.1,7.51,0,5.37-.25,10.73-.6,16.1-.92h.82l-.8,27v47.58h22.65l3.09,1.1c6.13-.11,12.27-.28,18.4-.3,3.74,0,5.41-1.95,5.39-5.48,0-7.12-.17-14.24-.27-21.36q.3-10.86.59-21.71c.29,6,.9,12.07.75,18.08-.11,4.09,1.35,5.09,5.12,4.94,6.26-.26,12.53-.08,18.79-.08Q389.2,842.55,389.24,855.54Z"/><path class="cls-2" d="M289.8,788.68q-.17,8.58-.32,17.15H265.91v48q-.06,9.34-.14,18.71l-25-16.69,0-26.33c3.91-7.69,1.65-15.87,1.9-23.85l.39-22.78c4.6,0,9.2,0,13.8,0,6.33,0,8.87-2.6,8.91-8.91q0-8.86,0-17.75c.46-7.81.91-15.63,1.35-23.23h21.49L313.16,734c.2,3,.41,6,.61,9.06,0,.92,0,1.84.05,2.75v1.22c0,2,.08,3.91.13,5.86-.08,3.42-1.9,4.3-5.15,4.18-6.42-.25-12.86-.07-19-.07Z"/><path class="cls-4" d="M339.41,881.38c6.63,0,13.26-.11,19.88.06,3,.08,4.12-1,4-4-.17-4.8.21-9.62-.11-14.4-.29-4.23.84-5.94,5.44-5.68,6.77.37,13.58,0,20.37,0-.27,6.9-.62,13.81-.77,20.71-.08,3.7-2.16,4.19-5.24,4.12-5.39-.11-10.78.2-16.17.12-2.93,0-3.62,1.33-3.58,4,.1,7.28.05,14.55,0,21.83,0,3.11-.11,6.22-.17,9.32l-17.85-6-3.94-1.54L341,910l-.29-.13c-.77-3-2.15-6-2.18-9C338.47,894.36,339.08,887.87,339.41,881.38Z"/><path class="cls-4" d="M609.12,921.31c-.3-5.38-.71-10.76-.87-16.15-.15-5.63,0-11.27-.08-16.9,0-4.1-1.47-6.25-6.23-6-5.89.26-11.82-.4-17.73-.66,9.4-.39,18.79-1,28.19-1.08,6.56-.06,13.12.59,19.69.92.34,6,.52,12,1.07,18,.36,4,1.26,7.88,1.91,11.82-2.85,1.24-5.71,2.46-8.54,3.72s-5.48,2.5-8.22,3.75Z"/><path class="cls-5" d="M802.38,799.8c0-12.1,0-24.2,0-36.3a65.24,65.24,0,0,1,.86-7.34c6.7-.08,13.4-.29,20.09-.13,1.55,0,3.06,1.29,4.59,2q.18,5.18.35,10.34Z"/><path class="cls-6" d="M265.77,872.53q.08-9.36.14-18.71c5.61,0,11.25-.33,16.82.14,5.76.5,6,.6,6.11-5,.16-8.06.38-16.12.58-24.17,0,17.23.11,34.46.05,51.69a84.38,84.38,0,0,1-1,9Z"/><path class="cls-7" d="M339.41,881.38c-.33,6.49-.94,13-.85,19.47,0,3,1.41,6,2.18,9q-14.52-6.42-29.06-12.84c-.7-.31-1.44-.52-2.16-.78l4-2.32a88.17,88.17,0,0,1,.16-10.47,4.44,4.44,0,0,1,3.23-2.85C324.41,880.63,331.91,881.07,339.41,881.38Z"/><path class="cls-8" d="M670,898.59l-20,8.74-1.08-.11c2-1,4.12-2,6-3.16,1.13-.72,2.84-1.95,2.79-2.87-.36-7-1.1-13.9-1.72-20.84,0-.33,0-.66.08-1,5.61,0,11.21-.08,16.81.1,6.48.21,7,.84,7,7.13,0,2.31.11,4.61.17,6.92h0l-2,1.1.06-.06-2,1.07.07-.06-2.07,1.05.07-.07-2.07,1.06.08-.07Z"/><path class="cls-9" d="M240.72,829.5l0,26.34-22.86-17.67c-.28-1.53-.55-3.06-.82-4.59.18-1.11.37-2.22.55-3.33a1,1,0,0,1,.12-.76Z"/><path class="cls-5" d="M704.56,878.33l1.16,1-23.88,13.43c-.11-2.47-.28-4.93-.32-7.4-.1-5.32-2.69-7.24-8-6.82s-10.78.09-17,.09c.44-8.3.84-16,1.25-23.59.06,6.12.25,12.25.14,18.37-.05,3,1,4,4,4C676.16,877.6,690.36,878,704.56,878.33Z"/><path class="cls-10" d="M657.81,855c-.41,7.65-.81,15.3-1.25,23.6,6.19,0,11.61.33,17-.09s7.89,1.5,8,6.82c0,2.47.21,4.93.32,7.4l-1.76.78c-.06-2.31-.15-4.61-.17-6.92,0-6.29-.51-6.92-7-7.13-5.6-.18-11.2-.08-16.81-.1-.15-.28-.44-.56-.44-.84q-.37-60.4-.73-120.82l1.11-.59,1.05,23.64q.31,20.49.62,41c0,.71,0,1.43.07,2.14s.07,1.23.11,1.85q0,13.89,0,27.78C657.88,854,657.84,854.5,657.81,855Z"/><path class="cls-4" d="M434.64,933.14c3.05,0,6.1-.12,9.14.05q16.65.91,33.3,2a10.4,10.4,0,0,1,2.67.94l-.92.78Z"/><path class="cls-4" d="M498.68,936.15l39.88-2a65.9,65.9,0,0,1-7.91,1.4c-10.65.57-21.31,1-32,1.42A7.85,7.85,0,0,0,498.68,936.15Z"/><path class="cls-3" d="M648.92,907.22l1.08.11-31.69,11.38c2.74-1.25,5.47-2.53,8.22-3.75s5.69-2.48,8.54-3.72Z"/><path class="cls-7" d="M498.68,936.15a7.85,7.85,0,0,1,0,.84l-19.86,0,.92-.78Z"/><path class="cls-7" d="M341.3,909.81l3.94,1.54Z"/><path class="cls-6" d="M288.45,885.49l1.79.94Z"/><path class="cls-10" d="M678.08,894.61l2-1.1Z"/><path class="cls-10" d="M676.1,895.62l2-1.07Z"/><path class="cls-10" d="M672.1,897.6l2.07-1.06Z"/><path class="cls-10" d="M670,898.59l2.14-1.06Z"/><path class="cls-10" d="M674.1,896.61l2.07-1.05Z"/><path class="cls-5" d="M795.47,806.9l1-1.14Z"/><path class="cls-5" d="M795.18,807.65l-.24-.39.71-.39A.81.81,0,0,1,795.18,807.65Z"/><path class="cls-5" d="M796.45,805.88c.35-.37.7-.75,1.06-1.12C797.15,805.13,796.8,805.5,796.45,805.88Z"/><path class="cls-5" d="M801.37,800.82l1-1.08Z"/><path class="cls-5" d="M800.38,801.82l1.07-1.08Z"/><path class="cls-5" d="M799.39,802.82l1.06-1.07Z"/><path class="cls-5" d="M797.43,804.84l1.06-1.08Z"/><path class="cls-5" d="M798.41,803.84l1.07-1.09Z"/><path class="cls-11" d="M314.9,465c-6.46.08-12.92,0-19.37.29-3.69.15-4.95-1.29-4.92-4.93.13-12.92.07-25.84,0-38.76a30.43,30.43,0,0,0-.93-5.19l-.15-20.81-.09-7c0-3.29,0-6.58-.05-9.87v-2.08l-.2-7.2q.21-.33.45-.66c6.43,0,12.89-.32,19.31,0,4.24.21,5.94-.88,5.67-5.42-.36-5.92,0-11.88,0-17.82l1.93-.14,23.06-.43a32.16,32.16,0,0,0,.79-4.71c.13-4.62.2-9.24.07-13.86-.11-3.91,1.26-5.74,5.48-5.51,5.43.31,10.88.13,16.33.16l1,.89c0,13.34,0,26.68-.05,40a24,24,0,0,1-1,4.72l-2,.08L339.32,368v22.48c-1.74.68-3.48,1.94-5.21,1.93-5.27,0-10.54-.51-15.8-.9-2.75-.2-3.88.85-3.82,3.7.18,7.46.15,14.92.2,22.39Z"/><path class="cls-12" d="M630.11,221.34c.27.7.55,1.4.83,2.1,0,3.11,0,6.22.18,9.33.25,4.83.62,9.66.94,14.49,0,.29.05.59.07.89q.51,11.52,1,23l-1.32.91c-6.55.32-13.1.8-19.66.9-3,.05-4.14,1-4,4,.19,4.94-.2,9.91.14,14.83.3,4.25-1.37,5.27-5.36,5.23-6.2-.06-12.41.56-18.61.89h-1L570.37,297l-9.92,0-2.12-1.22c.57-6.18,1.59-12.37,1.51-18.54,0-3.25.74-4.22,3.63-4.22,5,0,9.93-.13,14.89,0,3,.09,4.08-.93,4.06-4-.17-23.49-.2-47-.28-70.47l.25-.39,24.56.54c-.22,6.76-.58,13.52-.53,20.27,0,1.05,1.91,3,2.93,3C616.27,222.07,623.19,221.64,630.11,221.34Z"/><path class="cls-13" d="M386.2,173.51l1.07-.4c10.69-.06,21.38-.18,32.07-.16,5.57,0,11.13.3,16.69.46,0,7.06,0,14.12-.14,21.17-.08,3.09,1.21,4,4.14,3.95,5.29-.15,10.6,0,15.9-.05,3.47,0,5.12,1.39,5,5.1-.21,5-.13,9.94,0,14.9.09,2.75-.87,3.82-3.7,3.81q-47-.14-93.92-.1a32.38,32.38,0,0,1-.91-5.2c-.11-6.19-.05-12.38-.05-18.57q9.15-.06,18.31-.15c3.57,0,5.85-1,5.6-5.46C385.88,186.4,386.18,179.94,386.2,173.51Z"/><path class="cls-11" d="M242.94,343.82c0-6.3.1-12.6-.14-18.88-.15-3.79,1.61-5.05,5-5,4.14,0,8.28-.1,12.42,0,2.55.06,3.57-.93,3.52-3.5-.11-5.3-.14-10.61,0-15.9.09-3.06-1.46-3.66-4-3.46-4.11.31-8.22.7-12.34.81-3.9.1-6-1.42-5.7-5.94.39-5.1.18-10.26.07-15.4,0-2.55.93-3.59,3.49-3.53,4.41.1,8.83-.15,13.23.05,3.52.16,5.52-.37,5.37-4.73a100.8,100.8,0,0,1,.95-16.28c.23-1.68,2.17-4.44,3.4-4.48,6.73-.22,13.48.26,20.23.5l.31.3c-.07,7.09,0,14.19-.29,21.28-.16,3.59,1.23,4.56,4.59,4.4,6.73-.33,13.48-.37,20.22-.53q0,11.19-.05,22.39c-5.22.35-10.44.91-15.67,1-11,.2-9.91-1-9.94,9.72,0,4.77,0,9.55,0,14.33H266.76c0,6.85-.17,12.93.07,19,.13,3.23-1.45,4-4.11,4H244.87Z"/><path class="cls-14" d="M705,391.34l-.3,1.13c-6.75,0-13.51.14-20.26,0-2.78,0-3.75,1-3.71,3.76.09,6.75-.06,13.5-.11,20.25l-23.79-.06-2.84-.19c.67-1.23,1.86-2.43,1.91-3.68.2-5.58,0-11.18.11-16.77.05-2.69-1.27-3.35-3.65-3.32-6.74.09-13.49.05-20.23.07-.17-2-.49-3.92-.47-5.88.08-7,.27-14,.41-21l25,.91c6.59,0,13.19-.1,19.78.13,3.47.12,4.83-1.36,4.83-4.6,0-2.31,0-4.61,0-6.92,0-9.55,0-9.55,9.79-9.56h11.84c.25-3.13.45-5.57.66-8a5.76,5.76,0,0,0,.59.18Q704.85,364.56,705,391.34Z"/><path class="cls-11" d="M680.64,416.53c.05-6.75.2-13.5.11-20.25,0-2.77.93-3.8,3.71-3.76,6.75.09,13.51,0,20.26,0q.06,54.06.13,108.14a35.39,35.39,0,0,0,.33,5.92c1.08,6.47.4,7.38-5.92,7.41L681.9,514l-.29-.13q-.3-13.12-.59-26.24-.16-22.43-.32-44.86l.09-2.45Z"/><path class="cls-15" d="M315.79,563.68c-.1-.33-.21-.66-.31-1l-.21-96.37c.08-.36.16-.72.23-1.07l22.94-.07c0,3.76,0,7.51.09,11.27.25,16.05.68,32.1.72,48.14,0,13.07-.43,26.14-.67,39.2Z"/><path class="cls-7" d="M680.86,660.59l22.88.79c0,5.44-.1,10.89.07,16.33.11,3.46-1.35,4.71-4.71,4.6a128,128,0,0,0-13.85.11c-1.17.08-2.23,1.83-3.34,2.82-.08.64-.15,1.29-.23,1.94q-.39,9.93-.77,19.86c-.26.57-.75,1.15-.74,1.72.12,7.74.31,15.47.49,23.21l-23.57.24q-.54-19-1.06-38c1.1-2.83,2.49-5.69-.92-8-.05-.64-.1-1.28-.14-1.93.34-4.37.87-8.73,1-13.11.26-10.12-1.26-8.6,8.63-8.88,1.76,0,3.49-.93,5.24-1.43Z"/><path class="cls-13" d="M579.23,172.62c.67,1.53,1.81,3,1.94,4.6.56,7,.84,14.05,1.22,21.07l-.24.39c-14.38-.41-28.76-.78-43.13-1.26-3.49-.12-4.56,1.41-4.58,4.77a136.63,136.63,0,0,1-1,15.79,4.67,4.67,0,0,1-3.06,3.22c-5.39.64-10.84.75-16.27,1.1-4.06.26-5.91-2.24-6.2-5.64a93.47,93.47,0,0,1,0-13.9c.24-3.46,1.85-5.73,6.09-5.41,4.77.37,9.61-.08,14.4.18,3.72.2,5.42-.71,5.18-4.89-.36-6.22-.09-12.48-.09-19.19h-6.31l-67.58-.23c2-.17,3.92-.49,5.89-.5Q522.35,172.65,579.23,172.62Z"/><path class="cls-11" d="M656.89,539.83c0,14-.08,28.1.13,42.14.07,4.26-1.25,5.83-5.65,5.8-6.21,0-12.42.65-19.24,1.07,0,7-.13,13.73,0,20.4.09,3.18-.91,4.45-4.21,4.34-6.09-.2-12.19-.06-18.33-.06l-1.19,3c-.12-1.29-.23-2.57-.34-3.86q.07-12,.17-24.06a35.56,35.56,0,0,1,5.26-.92c4.77-.12,9.56-.19,14.33,0,3.25.15,4.37-1.05,4.25-4.26-.26-6.75-.26-13.5-.36-20.24s0-13.2.24-19.79c0-1.35,1.25-2.66,1.92-4l11.92.26Z"/><path class="cls-15" d="M363.46,637.09a.65.65,0,0,0-.2-.66q0-11.45.07-22.88l.23-.26,25.4.41q0,4.88.11,9.75,0,3,.05,6.07l.46,7.06c6.32,0,12.1.24,17.84-.07,4.31-.24,5.93,1.18,5.7,5.59-.32,6-.08,12-.08,18.27,6.46,0,11.9-.1,17.33,0,6.56.16,13.11.51,19.66.77l-12.19,1.2-.69-.14c-1.82-.42-3.64-1.18-5.46-1.19-11.71-.09-23.43.13-35.14-.1-2.22,0-4.4-1.66-6.6-2.55v-3l0-15.94c-.25-.61-.51-1.22-.77-1.83Z"/><path class="cls-11" d="M386.2,173.51c0,6.43-.32,12.89.05,19.3.25,4.46-2,5.42-5.6,5.46q-9.15.1-18.31.15l-24.15,0a5,5,0,0,1-.77,0c0-6.93.13-13.86,0-20.78-.09-3.24,1-4.3,4.27-4.27C356.5,173.55,371.35,173.49,386.2,173.51Z"/><path class="cls-3" d="M339,685.4c-.18-6.41-.2-12.82-.59-19.21-.21-3.63.88-5,4.69-4.87,7.09.24,14.19,0,21.29,0l.44,0,.44-.06,22.9.24q0,3.9-.05,7.82l-.06,2q0,4,0,7.92l-1.92,5.07-21.56,1.5c-.54,4.28-1,8.3-1.55,12.33a21.62,21.62,0,0,1-.68-7.68c.32-3.86-1.22-5.34-5.12-5.19-5.92.22-11.87,0-17.8,0Z"/><path class="cls-16" d="M338.44,465.17l-22.94.07a1.33,1.33,0,0,1-.6-.28l-.21-47.32c6.15-.1,12.31-.11,18.46-.32a46.61,46.61,0,0,0,6.15-1q.07,12,.13,24.09a34.76,34.76,0,0,0-.87,5.21C338.43,452.13,338.46,458.65,338.44,465.17Z"/><path class="cls-8" d="M631.79,637.62l24.3.84,0,21.87c-5.91.07-11.83,0-17.73.25-3.4.13-5.63,1.27-5.42,5.65.28,6-.37,12.09-.61,18.13l-.3,1.74c-6.85-.28-13.69-.66-20.54-.66-.75,0-2.09,2.24-2.14,3.47-.22,6.4-.11,12.81-.12,19.22l-.92,1.14c-.09-1.09-.17-2.17-.26-3.25,0-2.58,0-5.15.05-7.73q-.09-6.72-.2-13.45c.11-3.47.16-6.93.36-10.39.24-4.41.6-8.81.91-13.22,6.25,0,12.49,0,18.73.11,2.94.07,4.15-1,4.08-4C631.79,650.76,631.83,644.19,631.79,637.62Z"/><path class="cls-11" d="M242.67,391.59c-6.31,0-12.61-.08-18.92.05-2.73.06-3.86-.82-3.84-3.68q.15-19.9,0-39.82c0-2.62,1-3.49,3.55-3.46,6.4.07,12.81,0,19.22,0l.27,8.12q0,19.35.07,38.7Z"/><path class="cls-8" d="M681.91,685.24c1.11-1,2.17-2.74,3.34-2.82a128,128,0,0,1,13.85-.11c3.36.11,4.82-1.14,4.71-4.6-.17-5.44-.06-10.89-.07-16.33,7.1,0,14.21.08,21.32-.07,3.43-.07,4.74,1.31,4.65,4.7-.16,6.44-.08,12.89-.1,19.33l-25.68.95C696.7,683.59,689.33,683.84,681.91,685.24Z"/><path class="cls-17" d="M656.89,539.83l-11-.12,10.35-1.3c0-6.44.3-12.73-.1-19-.3-4.57,1.43-5.65,5.66-5.47,6.61.28,13.24,0,19.86-.06l.29.13c0,5.27-.11,10.54-.12,15.81,0,9,0,8.89-9.24,9.07C667.32,539,662.11,539.51,656.89,539.83Z"/><path class="cls-18" d="M779.49,708.13H753.57c0-5.46.14-10.93-.11-16.37-.05-1.2-1.39-3.23-2.32-3.34-5.39-.64-10.83-.8-16.25-1.15-3.31-.22-4.27,1.5-4.28,4.55s-.47,6.14-.74,9.22q-.18-7.72-.38-15.46c14.55-.17,29.1-.23,43.64-.57,4.07-.1,5.15,1.85,5.31,5.34C778.72,696.28,779.13,702.2,779.49,708.13Z"/><path class="cls-11" d="M656.16,247.11c6.41,0,12.83.25,19.23,0,4.2-.16,5.53,1.7,5.48,5.56-.1,6.24,0,12.49,0,18.73a7.53,7.53,0,0,1-.08.83l-24.77-.1-.86-1.1c0-1.94,0-3.88,0-5.81Z"/><path class="cls-18" d="M828,758c-1.53-.69-3-2-4.59-2-6.69-.16-13.39.05-20.09.13-.28-5.87-.7-11.73-.81-17.6-.12-6.52,0-6.48-6.65-6.42-5.13,0-10.26,0-15.39-.08a25.58,25.58,0,0,1,4.58-1c6.34-.13,12.68-.09,19-.12,5.51.34,11,.83,16.54,1,6.57.17,6.5,0,6.65,6.36C827.37,744.88,827.7,751.45,828,758Z"/><path class="cls-5" d="M265.77,756.17q0,8.88,0,17.75c0,6.31-2.58,8.87-8.91,8.91-4.6,0-9.2,0-13.8,0-.31-.71-.62-1.41-.92-2.12l-1-24.65,24.55-.43A3.89,3.89,0,0,0,265.77,756.17Z"/><path class="cls-19" d="M311.49,685.37l27.46,0,.39-.14-.21,8.73-.72,15.18-23.9,1h0l-.93-1Z"/><path class="cls-19" d="M388.12,661.49l-22.9-.24-1-.88q-.39-11.64-.8-23.28l25.69.51c.26.61.52,1.22.77,1.83l0,15.94c-.1.1-.31.22-.29.3a4.18,4.18,0,0,0,.28.71v2Z"/><path class="cls-20" d="M315.79,563.68l22.79.1,1.53,2.39.08,17.5c-.26,1.65-.53,3.31-.79,5-6.25,0-12.51-.16-18.76,0-3.46.09-5.21-.88-5.07-4.71C315.82,577.18,315.74,570.42,315.79,563.68Z"/><path class="cls-20" d="M632.06,247.26c-.32-4.83-.69-9.66-.94-14.49-.16-3.11-.13-6.22-.18-9.33,6.95-.07,13.9-.08,20.86-.24,3-.07,4.17,1.25,4.11,4.16-.11,6.3-.11,12.59-.15,18.88l-2.78,1.5-3,.12-4.85,0-12,.08Z"/><path class="cls-9" d="M288.61,732.94H267.12c-.44,7.6-.89,15.42-1.35,23.23a3.89,3.89,0,0,1-.12-.49q0-11.37.05-22.74.12-11.91.25-23.82l20.82.81a9.63,9.63,0,0,0-1.43.35c-.23.1-.38.42-.56.64l6.61.71C290.44,718.92,289.52,725.93,288.61,732.94Z"/><path class="cls-20" d="M266.73,416.39c-6.46,0-12.94-.11-19.39.17-3.58.15-4.55-1.19-4.48-4.59.14-6.79-.1-13.59-.19-20.38l.37-.11c6.25,0,12.51.25,18.75,0,3.9-.17,5.15,1.1,5,5-.12,5,.51,10,.81,15v3.76Z"/><path class="cls-11" d="M288.49,248.05c.07-6.25.27-12.5.16-18.74-.08-4.27,1.22-6.36,6-6.11,5.9.31,11.83,0,17.75-.06l.33.29.21,6.77,0,4.12c-.22,4.52-.44,9-.69,14H288.8Z"/><path class="cls-6" d="M286.77,709.93,266,709.12c6.16-.32,12.31-.94,18.46-.84,4.08.07,5.68-1.11,5.25-5.26a26.72,26.72,0,0,1,.14-8.84c.52-2.16,2.5-4,3.83-5.94l9-2.87h8.89l2.1,23.78.93,1h0c-.37,3.11-.75,6.23-1.13,9.34a20.07,20.07,0,0,1-.48-4.39c.43-4.07-.94-5.54-5.27-5.28C300.7,710.22,293.72,709.93,286.77,709.93Z"/><path class="cls-15" d="M608.11,612.69c.11,1.29.22,2.57.34,3.86l-.12,20.86-.3,0-23,.15a1.67,1.67,0,0,1-.63,0c0-3.14.05-6.28-.11-9.41-.23-4.54-.63-9.07-1-13.6l-4.91-1.17,5-.83Z"/><path class="cls-20" d="M680.81,272.24a7.53,7.53,0,0,0,.08-.83l9.94-.13h11.93l1,.81q.21,12,.43,24l-.41-.12-22.68,1.86Z"/><path class="cls-15" d="M339.4,588.63c.26-1.65.53-3.31.79-5,.1,1.33.21,2.66.31,4h22.81q.07,12.45.16,24.91a1.74,1.74,0,0,0,.09.72l-.23.26-16-.52h-5.08c-.93-1.21-2.61-2.39-2.66-3.63C339.29,602.48,339.41,595.55,339.4,588.63Z"/><path class="cls-18" d="M265.7,732.94q0,11.37-.05,22.74l-24.55.43c.2-6.27.51-12.54.56-18.81,0-3.36,1.73-4.21,4.69-4.2C252.8,733.13,259.25,733,265.7,732.94Z"/><path class="cls-6" d="M337.42,198.45a5,5,0,0,0,.77,0q.13,11.94.26,23.89l-23.93-.27c-.23-7-.45-14-.74-21,0-.26-.73-.49-1.12-.73,1.85-.53,3.69-1.44,5.57-1.53C324.62,198.56,331,198.56,337.42,198.45Z"/><path class="cls-21" d="M631.79,637.62c0,6.57,0,13.14.16,19.7.07,3-1.14,4.09-4.08,4-6.24-.15-12.48-.09-18.73-.11a41.63,41.63,0,0,1-.92-5.71c-.17-6-.14-12.09-.19-18.14l.3,0Z"/><path class="cls-18" d="M242.09,780.76c.3.71.61,1.41.92,2.12l-.39,22.78L220,806.73c0-6.26-.16-12.51-.1-18.77.05-4.14,1.46-6.59,6.48-6.32C231.57,781.92,236.84,781.1,242.09,780.76Z"/><path class="cls-17" d="M630.11,221.34c-6.92.3-13.84.73-20.76.75-1,0-2.92-1.94-2.93-3,0-6.75.31-13.51.53-20.27,6.61-.14,13.23-.24,19.85-.44,2.59-.08,3.5,1.06,3.45,3.57C630.12,208.42,630.15,214.88,630.11,221.34Z"/><path class="cls-22" d="M804,731c-6.35,0-12.69,0-19,.12a25.58,25.58,0,0,0-4.58,1c-.62-1.28-1.79-2.56-1.77-3.83.09-6.7.48-13.39.77-20.08l24.09.93q.24,9.95.49,19.9Z"/><path class="cls-22" d="M220,806.73l22.64-1.07c-.25,8,2,16.16-1.9,23.85l-23,0Q218.87,818.11,220,806.73Z"/><path class="cls-19" d="M656.06,660.33l0-21.87c6.76,0,13.52.1,20.28-.11,3.33-.1,4.77.85,4.61,4.44-.26,5.92-.1,11.86-.12,17.8l-11,.25Z"/><path class="cls-13" d="M267.64,415.29c0-1.26,0-2.51,0-3.77.36-4.52,1-9,1-13.57,0-3.54,1.22-4.62,4.62-4.47,5.12.23,10.26.07,15.39.08l.87,2,.15,20.81-21.91-.09C267.71,416,267.68,415.62,267.64,415.29Z"/><path class="cls-19" d="M579.23,172.62q-56.88,0-113.76.1c-2,0-3.93.33-5.89.5l-23.55.19c-5.56-.16-11.12-.44-16.69-.46-10.69,0-21.38.1-32.07.16,1.4-.52,2.81-1.48,4.22-1.48q91.81-.1,183.62,0A17.58,17.58,0,0,1,579.23,172.62Z"/><path class="cls-19" d="M705,391.34q-.18-26.77-.34-53.54-.3-8.44-.59-16.89l-.23-.07q0-12.43-.1-24.87l.41.12c.52,1.22,1.5,2.44,1.51,3.66q.12,44.4,0,88.8A11.86,11.86,0,0,1,705,391.34Z"/><path class="cls-19" d="M315.27,466.31l.21,96.37a20.1,20.1,0,0,1-.91-4.17q-.07-44.21,0-88.41A21,21,0,0,1,315.27,466.31Z"/><path class="cls-19" d="M347.29,613l16,.52q0,11.43-.07,22.88c-.31-5.35-1.06-10.72-.81-16,.23-4.9-1.48-6.29-6.15-5.95-5.22.38-10.49.08-16.61.08l2.52-1.49h5.08Z"/><path class="cls-11" d="M312.66,200.37c.39.24,1.11.47,1.12.73.29,7,.51,14,.74,21l-1.19,1.07a4.22,4.22,0,0,0-.65.3l-.33-.29Q312.5,211.76,312.66,200.37Z"/><path class="cls-18" d="M804,729q-.24-10-.49-19.9Q803.75,719,804,729Z"/><path class="cls-23" d="M653,247.74l2.78-1.5a5.69,5.69,0,0,1,.4.87l-1,18.11c-.09-4.3,0-8.62-.34-12.9C654.74,250.75,653.64,249.26,653,247.74Z"/><path class="cls-19" d="M302.6,685.37l-9,2.87Z"/><path class="cls-23" d="M243,352.78l-.27-8.12q.11-.44.24-.84l1.93.14c-.36,2.9-.73,5.81-1.09,8.72A7.46,7.46,0,0,0,243,352.78Z"/><path class="cls-22" d="M217.62,830.25c-.18,1.11-.37,2.22-.55,3.33C217.25,832.47,217.44,831.36,217.62,830.25Z"/><path class="cls-14" d="M267.64,415.29c0,.33.07.66.11,1l-1,.11Z"/><path class="cls-6" d="M364.26,660.37l1,.88-.44.06-.44,0C364.3,661,364.28,660.67,364.26,660.37Z"/><path class="cls-11" d="M703.74,272.09l-1-.81Z"/><path class="cls-11" d="M691.86,271.28h0Z"/><path class="cls-3" d="M654.94,757.7q.36,60.4.73,120.82c0,.28.29.56.44.84,0,.33-.07.66-.08,1l-23.94,1c-6.57-.33-13.13-1-19.69-.92-9.4.09-18.79.69-28.19,1.08l-.89-.17a30.7,30.7,0,0,1-.87-5.72c.2-6.33.63-12.65,1-19l21.8-1.22,2,0c6.63.33,13.26.76,19.9.93,1.64,0,3.31-.74,5-1.15,0-4.09.21-8.18.09-12.27-.19-6.49-.57-13-.87-19.48l-.54-17.68c.45-1.16,1.28-2.31,1.28-3.47,0-14.49-.11-29-.2-43.48a27.39,27.39,0,0,1,4.58-.88C642.6,757.82,648.77,757.79,654.94,757.7Z"/><path class="cls-7" d="M533.43,829.7l-119.24.06a23.83,23.83,0,0,1-1.07-4.61,120.77,120.77,0,0,1,0-13.32c.33-4.25-1.34-5.39-5.35-5.19-5.58.27-11.19,0-16.79,0,0-.35.09-.69.13-1l22.69-.13c1.47.09,2.94.27,4.42.27q20.3.12,40.61.18c6.63.27,13.26.75,19.9.78q38.21.14,76.4,0c3.2,0,4.53.92,4.28,4.22-.46,6.24-.7,12.49-1,18.73Z"/><path class="cls-3" d="M558.42,829.61c.33-6.24.57-12.49,1-18.73.25-3.3-1.08-4.23-4.28-4.22q-38.19.15-76.4,0c-6.64,0-13.27-.51-19.9-.78,2.64-.06,5.28-.17,7.92-.17q43.36,0,86.72-.09a46.52,46.52,0,0,0,6.16-.85l22.47,0,.53,26.55-1.3,24.1a24.54,24.54,0,0,1-4.64,1c-6.1.11-12.2,0-18.3,0-.08-.6-.17-1.21-.25-1.81Z"/><path class="cls-4" d="M391,806.61c5.6,0,11.21.3,16.79,0,4-.2,5.68.94,5.35,5.19a120.77,120.77,0,0,0,0,13.32,23.83,23.83,0,0,0,1.07,4.61c0,7.1-.25,14.21-.05,21.3.09,3.54-1.16,4.59-4.58,4.48-6.77-.2-13.55,0-20.32,0q0-13-.1-26c0-6.19-.09-12.39.12-18.57C389.31,809.51,390.41,808.07,391,806.61Z"/><path class="cls-4" d="M558.42,829.61l-.24,25.06c-6.6,0-13.21-.37-19.79-.07-4.1.19-5.07-1.35-4.94-5.12.23-6.59,0-13.19,0-19.79Z"/><path class="cls-4" d="M558.43,856.48c6.1,0,12.2.07,18.3,0a24.54,24.54,0,0,0,4.64-1l2.06,1.21c-.35,6.33-.78,12.65-1,19a30.7,30.7,0,0,0,.87,5.72c-7,0-13.94-.13-20.9,0-3,.07-4.09-1-4-4C558.56,870.41,558.44,863.45,558.43,856.48Z"/><path class="cls-5" d="M657.72,821.72q-.32-20.47-.62-41l22.62.92c.37,5.9.88,11.78,1.09,17.68.23,6.48.79,6.8,7.41,5.87a83.66,83.66,0,0,1,12.87-.41c2.82.05,3.91-1,3.69-3.8-.36-4.6-.6-9.21-.94-13.81s1.06-6.84,6.15-6.47a155.94,155.94,0,0,0,15.89,0c2.79-.08,3.93,1,3.75,3.74-.38,5.93-.52,11.88-1.13,17.78-.09.91-2.12,2.19-3.36,2.32-5.4.55-10.85.86-16.28,1-3,.08-4.11,1.38-4.1,4.26,0,6.29-.12,12.59-.19,18.88-6.38-.37-12.77-.68-19.15-1.11-3.51-.23-4.65,1.41-4.55,4.73.16,5.62-.14,11.24.13,16.84.19,4-1.65,5.45-5.26,5.28-5.58-.27-11.16-.65-16.74-1,0-9.12,0-18.24-.08-27.36C658.91,824.67,658.14,823.2,657.72,821.72Z"/><path class="cls-9" d="M659,853.51c5.58.33,11.16.71,16.74,1,3.61.17,5.45-1.28,5.26-5.28-.27-5.6,0-11.22-.13-16.84-.1-3.32,1-5,4.55-4.73,6.38.43,12.77.74,19.15,1.11q0,24.78,0,49.58c-14.2-.33-28.4-.73-42.61-.91-3,0-4.05-1-4-4,.11-6.12-.08-12.25-.14-18.37,0-.51.07-1,.11-1.52Z"/><path class="cls-9" d="M679.72,781.67l-22.62-.92-1.05-23.64c.16-.72.31-1.44.46-2.16l24.17.83Z"/><path class="cls-18" d="M680.68,755.78,656.51,755q.29-11.37.58-22.74l23.57-.24h1c.11.7.23,1.4.34,2.1Q681.35,744.92,680.68,755.78Z"/><path class="cls-5" d="M682,734.06c-.11-.7-.23-1.4-.34-2.1V707.77h20.93c.34,7.68.78,15.35.87,23,0,.72-2.08,2-3.28,2.11C694.15,733.47,688.08,733.71,682,734.06Z"/><path class="cls-6" d="M702.61,707.77H681.68V732h-1c-.18-7.74-.37-15.47-.49-23.21,0-.57.48-1.15.74-1.72q.39-9.93.77-19.86c.08-.65.15-1.3.23-1.94,7.42-1.4,14.79-1.65,22,1,0,5.68,0,11.37-.17,17.05A20.1,20.1,0,0,1,702.61,707.77Z"/><path class="cls-22" d="M729.87,701c.27-3.08.73-6.15.74-9.22s1-4.77,4.28-4.55c5.42.35,10.86.51,16.25,1.15.93.11,2.27,2.14,2.32,3.34.25,5.44.11,10.91.11,16.37-7.27.26-14.55.75-21.79.43C731,708.52,730.5,703.66,729.87,701Z"/><path class="cls-8" d="M391,806.61c-.61,1.46-1.71,2.9-1.76,4.38-.21,6.18-.11,12.38-.12,18.57-6.26,0-12.53-.18-18.79.08-3.77.15-5.23-.85-5.12-4.94.15-6-.46-12.05-.75-18.08a1.12,1.12,0,0,1-.28-.74q-.09-13.08-.17-26.15,0-9.93,0-19.86a1,1,0,0,0,0-.9c0-.7,0-1.4,0-2.09a1,1,0,0,0,0-.92l-.06-19,0-2q0-8-.11-16.07a18.29,18.29,0,0,0,.3-3.94c-.68-4.78,1.23-6.32,6-6.18,5.55.16,11.12-.62,17.09-1-.38-8.09-.74-15.82-1.11-23.56q1-2.53,1.93-5.07a26.59,26.59,0,0,1,1.1,5c.2,8.34.23,16.69.31,25l.12,43.71c-.14,1.28-.29,2.55-.43,3.82q.21,12,.43,24c-.1,7.1-.29,14.21-.21,21.31,0,1.16,1.2,2.3,1.85,3.44Z"/><path class="cls-4" d="M364,779.73l.18,26.15H341.68c-.16,1.88-.28,3.32-.41,4.77l-.71.1V803l-.93,0-.54,4.82a18.18,18.18,0,0,0-4.17-1.08c-6.76-.09-13.52,0-20.29,0q.4-13.5.8-27V756.31l23.24-1.45V719.28a3.33,3.33,0,0,1,.61-.27c0,4.14.1,8.29.11,12.43,0,14.58,0,29.17,0,43.76,0,2.68-.05,5.74,3.85,5.61C350.2,780.58,357.11,780.1,364,779.73Z"/><path class="cls-10" d="M338.67,719.28v35.58l-23.24,1.45V779.8h-.82c-.07-2-.15-3.92-.19-5.88q-.24-10.49-.46-21c0-1.95-.09-3.91-.13-5.86,0-.41,0-.81,0-1.22,0-.91,0-1.83-.05-2.75l.66-8.83-.77-2.21-.15-1.93c0-1.45-.09-2.91-.13-4.37v-6.28c.38-3.11.76-6.23,1.13-9.34l23.9-1C338.5,712.54,338.58,715.91,338.67,719.28Z"/><path class="cls-1" d="M314.63,806.79c6.77,0,13.53-.13,20.29,0a18.18,18.18,0,0,1,4.17,1.08q.09,10.36.15,20.71l-.84,1-.34,1c-.51.9-1.49,1.81-1.47,2.7.12,7,.43,14.08.69,21.13H314.63Z"/><path class="cls-9" d="M289.42,824.82c-.2,8-.42,16.11-.58,24.17-.12,5.57-.35,5.47-6.11,5-5.57-.47-11.21-.13-16.82-.14v-48h23.57Z"/><path class="cls-1" d="M363.89,828.33c.1,7.12.23,14.24.27,21.36,0,3.53-1.65,5.47-5.39,5.48-6.13,0-12.27.19-18.4.3l-.09-24.88.36-1.12Z"/><path class="cls-22" d="M314,752.92q.23,10.5.46,21c0,2,.12,3.92.19,5.88-5.37.32-10.73.67-16.1.92-2.45.12-4.9,0-7.51,0-.43,2.87-.82,5.41-1.2,7.95V757c6.15,0,12.59-.18,19,.07C312.06,757.22,313.88,756.34,314,752.92Z"/><path class="cls-24" d="M363.89,828.33l-23.26,1.14q.24-8.84.46-17.67l.18-1.15.41-4.77H364.2a1.12,1.12,0,0,0,.28.74Q364.18,817.47,363.89,828.33Z"/><path class="cls-7" d="M340.28,830.59l.09,24.88-3.09-1.1c-.26-7-.57-14.09-.69-21.13,0-.89,1-1.8,1.47-2.7Z"/><path class="cls-5" d="M313.38,719.47v6.28c0,1.46.09,2.92.13,4.37l.15,1.93,0,2a.8.8,0,0,0-.53,0l-24.55-1.09c.91-7,1.83-14,2.78-21.31l-6.61-.71c.18-.22.33-.54.56-.64a9.63,9.63,0,0,1,1.43-.35c7,0,13.93.29,20.86-.13,4.33-.26,5.7,1.21,5.27,5.28A20.07,20.07,0,0,0,313.38,719.47Z"/><path class="cls-22" d="M314.43,734.26l-.66,8.83c-.2-3-.41-6-.61-9.06a.8.8,0,0,1,.53,0A2.18,2.18,0,0,1,314.43,734.26Z"/><path class="cls-22" d="M313.82,745.84c0,.41,0,.81,0,1.22C313.83,746.65,313.82,746.25,313.82,745.84Z"/><path class="cls-7" d="M632.09,881.4l23.94-1c.62,6.94,1.36,13.89,1.72,20.84,0,.92-1.66,2.15-2.79,2.87-1.92,1.21-4,2.12-6,3.16l-13.85,4c-.65-3.94-1.55-7.86-1.91-11.82C632.61,893.43,632.43,887.41,632.09,881.4Z"/><path class="cls-1" d="M657.09,732.21q-.29,11.37-.58,22.74c-.15.72-.3,1.44-.46,2.16l-1.11.59c-6.17.09-12.34.12-18.51.31a28.41,28.41,0,0,0-4.58.87c-.36,7.67-.72,15.34-1.07,22.86H608.34c-.1-1-.21-1.93-.31-2.89l.21-51.93q0-8.89,0-17.79l.09.14.92-1.14c6,0,11.93-.14,17.88.1,4,.17,5.27-1.43,5.1-5.25-.25-5.62-.14-11.26-.18-16.88l.3-1.74,22.67-.1c0,.65.09,1.29.14,1.93.31,2.67.61,5.34.92,8Q656.56,713.21,657.09,732.21Z"/><path class="cls-2" d="M659,853.51l-1.08,0q0-13.89,0-27.78c0-.62-.07-1.23-.11-1.85s0-1.43-.07-2.14c.42,1.48,1.19,2.95,1.2,4.43C659.05,835.27,659,844.39,659,853.51Z"/><path class="cls-5" d="M657.79,823.86c0,.62.07,1.23.11,1.85C657.86,825.09,657.83,824.48,657.79,823.86Z"/><path class="cls-25" d="M313.33,223.13l1.19-1.07,23.93.27a16.49,16.49,0,0,0,3.79.78c7-.23,14-.6,21.06-.92q47,0,93.92.1c2.83,0,3.79-1.06,3.7-3.81-.15-5-.23-9.94,0-14.9.15-3.71-1.5-5.13-5-5.1-5.3,0-10.61-.1-15.9.05-2.93.08-4.22-.86-4.14-3.95.17-7.05.11-14.11.14-21.17l23.55-.19,67.58.23h6.31c0,6.71-.27,13,.09,19.19.24,4.18-1.46,5.09-5.18,4.89-4.79-.26-9.63.19-14.4-.18-4.24-.32-5.85,2-6.09,5.41a93.47,93.47,0,0,0,0,13.9c.29,3.4,2.14,5.9,6.2,5.64,5.43-.35,10.88-.46,16.27-1.1a4.67,4.67,0,0,0,3.06-3.22,136.63,136.63,0,0,0,1-15.79c0-3.36,1.09-4.89,4.58-4.77,14.37.48,28.75.85,43.13,1.26.07,23.49.1,47,.27,70.47,0,3.06-1.09,4.08-4.06,4-5-.17-9.93,0-14.89,0-2.89,0-3.67,1-3.63,4.22.08,6.17-.94,12.36-1.51,18.54a35.22,35.22,0,0,0-4.9-.35c-6.31.38-12.61.9-18.91,1.37l-23.87-1c0-5.47-.08-10.93,0-16.39.05-3.74-1.65-5.45-5.39-5.43-13.24,0-26.49.08-39.73,0-3.43,0-4.76,1.3-4.69,4.69.14,6.12.05,12.25.05,18.37l-21.83,0c-.67,1-1.33,1.93-2,2.89-.32,5.25-.94,10.5-.88,15.75.05,4.17-2,5.06-5.49,5-4.28-.07-8.58.18-12.85-.07-3.62-.22-5,.94-4.84,4.72.25,6.09,0,12.19,0,18.29-6.23.28-12.46.57-18.7.83-4.18.17-4.78-3-5-6-.3-4.1.12-8.26-.19-12.35-.16-2.16-1.23-4.25-1.88-6.37,0-.64.07-1.28.11-1.92.11-.11.31-.24.29-.33a4.49,4.49,0,0,0-.29-.77c0-3.6,0-7.21,0-10.81.1-.12.3-.25.29-.35a4.67,4.67,0,0,0-.26-.8q0-3.39.05-6.76l1.75-1.2c6.76-.26,13.54-.42,20.3-.8,3.15-.17,4.93-2.05,4.56-5.28-.59-5.24-1.26-10.48-2.28-15.65-.17-.9-2.17-2-3.36-2.06-5.93-.22-11.87-.05-17.8-.14-2.63,0-3.45,1.16-3.41,3.64.09,6.13,0,12.27,0,18.4l-1.11,1.78c-6,.07-11.93.25-17.89.15-3-.05-4.15.92-4.06,4,.19,6.29.07,12.59.08,18.89l-2,1.16c-5.45,0-10.9.15-16.33-.16-4.22-.23-5.59,1.6-5.48,5.51.13,4.62.06,9.24-.07,13.86a32.16,32.16,0,0,1-.79,4.71l-23.06.43-1.93.14c0-.9-.07-1.81-.11-2.72V324.85l-.18-11.11c0-1.23,0-2.46,0-3.69,0-1.75,0-3.5,0-5.25,0-1.23,0-2.47,0-3.71l0-1.29-.29-2.83c7.46,0,14.93-.1,22.39,0,3,.06,4.14-1,4-4-.18-4.47,0-9,0-13.43-.16-8.26-.48-16.53-.61-24.79-.07-4.41-2.73-5.56-6.45-5.54-6.3,0-12.6.08-18.9.13l-1.53-15,0-4.12C313,227.84,313.18,225.49,313.33,223.13Zm232.84,48.65V272c3.15,0,6.29-.05,9.44,0,2.77.06,3.89-1.25,3.72-4-.33-5.27-.71-10.54-.81-15.81-.06-3.06-1.45-4.1-4.29-4-3.48.09-7,0-10.43,0-10.56,0-11.55,1.19-10,11.69.09.65.36,1.28.47,1.93.53,3.3-.09,8.09,1.82,9.52C538.28,273.06,542.7,271.78,546.17,271.78Z"/><path class="cls-12" d="M387.19,319.84c.65,2.12,1.72,4.21,1.88,6.37.31,4.09-.11,8.25.19,12.35.22,2.95.82,6.13,5,6,6.24-.26,12.47-.55,18.7-.83.08.36.15.72.22,1.08-1.68,7.74-1.72,15.42,1,23l-1.95,4.89c-.34-1.77.35-4.05-2.88-4-4.75,0-9.49-.36-14.24-.57l-6.92-.3.05-.25c0-6.78-.11-13.56,0-20.34,0-3.18-1.27-4.49-4.44-4.41-4.46.12-9-.36-13.38.13-5.32.59-6.44-1.59-6.23-6.42s-.56-9.7-.91-14.56l-1-.89,2-1.16a31.36,31.36,0,0,0,5.7.88C375.68,320.56,381.43,320.15,387.19,319.84Z"/><path class="cls-20" d="M360.25,366.71l2-.08a32.35,32.35,0,0,0,5.18,1c6.29.18,12.59.18,18.88.24q-.06,12.33-.13,24.64c-2,0-3.93.09-5.9,0-6.64-.25-13.29-.57-19.93-.85Q360.29,379.18,360.25,366.71Z"/><path class="cls-13" d="M386.29,367.85c-6.29-.06-12.59-.06-18.88-.24a32.35,32.35,0,0,1-5.18-1,24,24,0,0,0,1-4.72c.08-13.35.05-26.69.05-40,.35,4.86,1.12,9.73.91,14.56s.91,7,6.23,6.42c4.41-.49,8.92,0,13.38-.13,3.17-.08,4.48,1.23,4.44,4.41-.1,6.78,0,13.56,0,20.34Z"/><path class="cls-20" d="M339.3,416.32a46.61,46.61,0,0,1-6.15,1c-6.15.21-12.31.22-18.46.32-.05-7.47,0-14.93-.2-22.39-.06-2.85,1.07-3.9,3.82-3.7,5.26.39,10.53.87,15.8.9,1.73,0,3.47-1.25,5.21-1.93l3.19,1.35c-1.05,1.52-2.94,3-3,4.58-.31,6.37-.07,12.78,0,19.17A1.22,1.22,0,0,1,339.3,416.32Z"/><path class="cls-13" d="M314.49,342.76c0,.91.07,1.82.11,2.72,0,5.94-.35,11.9,0,17.82.27,4.54-1.43,5.63-5.67,5.42-6.42-.33-12.88,0-19.31,0q.08-10.51.16-21c6.17-1,12.36-1.86,18.51-3A48.2,48.2,0,0,0,314.49,342.76Z"/><path class="cls-25" d="M289.79,347.68q-.09,10.51-.16,21-.24.33-.45.66l-1.38.14-.1.05-1.06-.78h-6l-12,.06-1-.14a6.17,6.17,0,0,0-.84-.15q0-11.79,0-23.6l21.72-.25C289,345.69,289.4,346.68,289.79,347.68Z"/><path class="cls-14" d="M342.51,391.87l-3.19-1.35V368l20.93-1.33q0,12.48.08,25Z"/><path class="cls-13" d="M287.8,369.51l1.38-.14q.09,3.6.2,7.2c0,.69,0,1.38,0,2.08,0,3.29,0,6.58.05,9.87l-.78,2Z"/><path class="cls-13" d="M316.53,345.34l23.06-.43Z"/><path class="cls-23" d="M288.64,390.53l.78-2,.09,7-.87-2Z"/><path class="cls-23" d="M289.37,378.65c0-.7,0-1.39,0-2.08C289.38,377.26,289.37,378,289.37,378.65Z"/><path class="cls-25" d="M680.81,272.24l.27,25.59c-.06,6.28,0,12.56-.21,18.83-.11,3.19,1,4.42,4.25,4.3,6.24-.23,12.49-.1,18.74-.12l.22.07q0,8.35,0,16.71c-.21,2.43-.41,4.87-.66,8H691.59c-9.78,0-9.77,0-9.79,9.56,0,2.31,0,4.61,0,6.92,0,3.24-1.36,4.72-4.83,4.6-6.59-.23-13.19-.11-19.78-.13-.38-5.87-1-11.75-1-17.63,0-3.24-1.11-4.32-4.3-4.23-6.57.19-13.15.07-19.73.08l0-.05c-.31-6.42-.87-12.84-.83-19.25,0-3.75-1.21-4.82-4.87-4.76-14.06.19-28.12.1-42.19.12-.29-.32-.59-.63-.89-1l1-4c0-.69,0-1.38.08-2.07q0-7.93-.1-15.87c6.2-.33,12.41-.95,18.61-.89,4,0,5.66-1,5.36-5.23-.34-4.92.05-9.89-.14-14.83-.11-3,1.06-3.95,4-4,6.56-.1,13.11-.58,19.66-.9.1,6.95.32,13.9.23,20.84,0,3,.95,4.13,4,4,5.46-.22,10.93-.23,16.39-.11,2.89.07,3.72-1.17,3.67-3.86-.13-6.95-.08-13.9-.1-20.85Z"/><path class="cls-14" d="M534.52,296.88c6.3-.47,12.6-1,18.91-1.37a35.22,35.22,0,0,1,4.9.35l2.12,1.22q0,11.48-.08,22.95l-26.58.67a2.44,2.44,0,0,1-.23-.88c0-.32,0-.63,0-.95.61-.94,1.76-1.9,1.74-2.84C535.17,309.65,534.81,303.27,534.52,296.88Z"/><path class="cls-23" d="M656,272.14c0,6.95,0,13.9.1,20.85.05,2.69-.78,3.93-3.67,3.86-5.46-.12-10.93-.11-16.39.11-3.05.12-4-1-4-4,.09-6.94-.13-13.89-.23-20.84l1.32-.91,22-.16Z"/><path class="cls-25" d="M655.18,271l-22,.16q-.52-11.52-1-23a2.32,2.32,0,0,0,.94-.19l12-.08,4.85,0,3-.12c.66,1.52,1.76,3,1.88,4.58.33,4.28.25,8.6.34,12.9C655.19,267.16,655.19,269.1,655.18,271Z"/><path class="cls-23" d="M560.37,320q0-11.47.08-22.95l9.92,0,12.93.92h1q0,7.94.1,15.87c0,.69-.06,1.38-.08,2.07l-1,4Z"/><path class="cls-14" d="M583.3,298,570.37,297Z"/><path class="cls-23" d="M633.07,248a2.32,2.32,0,0,1-.94.19c0-.3,0-.6-.07-.89Z"/><path class="cls-21" d="M363.3,222.19c-7,.32-14,.69-21.06.92a16.49,16.49,0,0,1-3.79-.78q-.13-12-.26-23.89l24.15,0c0,6.19-.06,12.38.05,18.57A32.38,32.38,0,0,0,363.3,222.19Z"/><path class="cls-12" d="M314.45,249.34c6.3-.05,12.6-.11,18.9-.13,3.72,0,6.38,1.13,6.45,5.54.13,8.26.45,16.53.61,24.79.08,4.48-.13,9,0,13.43.12,3-1,4.11-4,4-7.46-.15-14.93,0-22.39,0l-.78-1.08q0-11.19.05-22.39Q313.89,261.41,314.45,249.34Z"/><path class="cls-20" d="M313.27,295.89l.78,1.08c.1.94.19,1.89.29,2.83,0,.43,0,.86,0,1.29,0,1.24,0,2.48,0,3.71,0,1.75,0,3.5,0,5.25,0,1.23,0,2.46,0,3.69l-.84,8-23.85.11-2-.91c0-4.78,0-9.56,0-14.33,0-10.77-1-9.52,9.94-9.72C302.83,296.8,308.05,296.24,313.27,295.89Z"/><path class="cls-13" d="M314.45,249.34q-.57,12.07-1.13,24.16c-6.74.16-13.49.2-20.22.53-3.36.16-4.75-.81-4.59-4.4.3-7.09.22-14.19.29-21.28h23.43c.25-5,.47-9.51.69-14Z"/><path class="cls-13" d="M266.89,344.94q0,11.81,0,23.61c-6.26,0-12.52-.05-18.77.15-3.14.11-4.51-.85-4.33-4.17.21-3.94,0-7.9,0-11.85.36-2.91.73-5.82,1.09-8.72h17.85Z"/><path class="cls-23" d="M266.89,344.94l-4.17-1c2.66,0,4.24-.79,4.11-4-.24-6.06-.07-12.14-.07-19h20.89l2,.91q-.51,11.42-1,22.83Z"/><path class="cls-23" d="M632.09,365.66c-.14,7-.33,14-.41,21,0,2,.3,3.92.47,5.88l-.14-.05-21.79-1c0-3.8.12-7.59-.05-11.38-.19-4.19-.66-8.37-1-12.56l-.75-1.05q.3-7.38.59-14.76c0-1.66,0-3.32.07-5,1.44-.68,2.87-1.89,4.34-2,6.22-.22,12.46-.1,18.69-.1l0,.05Q632.09,355.23,632.09,365.66Z"/><path class="cls-11" d="M654,416.28l2.84.19.06,23.69c-.37.36-.74.73-1.1,1.1-1.76-.22-3.51-.56-5.27-.62-6-.21-12.11-.32-18.17-.47q.38-12.27.76-24.55Z"/><path class="cls-16" d="M656.91,440.16l-.06-23.69,23.79.06.15,23.82-22.78,0Z"/><path class="cls-16" d="M654,416.28l-20.88-.66-1-1.17q0-11-.1-21.92l.14.05c6.74,0,13.49,0,20.23-.07,2.38,0,3.7.63,3.65,3.32-.11,5.59.09,11.19-.11,16.77C655.87,413.85,654.68,415.05,654,416.28Z"/><path class="cls-13" d="M632.09,365.66q0-10.44,0-20.87c6.58,0,13.16.11,19.73-.08,3.19-.09,4.26,1,4.3,4.23.08,5.88.66,11.76,1,17.63Z"/><path class="cls-11" d="M704.09,337.62q0-8.36,0-16.71l.6,16.89A5.76,5.76,0,0,1,704.09,337.62Z"/><path class="cls-26" d="M658,440.38l22.78,0-.09,2.44a7,7,0,0,0-.52,1.85q0,33.57,0,67.14H681V487.66q.29,13.13.59,26.24c-6.62.05-13.25.34-19.86.06-4.23-.18-6,.9-5.66,5.47.4,6.25.1,12.54.1,19l-10.35,1.3-11.92-.26c-7.39-.18-14.79-.16-22.15-.65-3.39-.22-4.81,1.17-5.44,4.1-5.92.52-10.23,3.73-13.86,8.17-1.84,2.26-3.87,4.35-5.78,6.55-.18.2-.1.63-.17,1.2l3.62,1.75-1.26.93-2.6,2.16-2.93.14c-2.06.88-4.35,1.44-6.14,2.71-6.34,4.52-4.54,12.5-7.16,18.66-1.21,2.83-1.81,3.36-4.24,3.42a73,73,0,0,0-8.11.5c-7.34,1-14.47,3.6-22.13,1.61a90.23,90.23,0,0,0-13.85-2c-2.9-.28-5.86-.05-8.79-.05,0-.37,0-.74,0-1.11h17.79c1.27-.81,3.59-1.57,3.63-2.44.31-6.69.17-13.41.17-20.52-4.11,0-7.55.12-11,0-4.22-.19-8.43-.62-12.64-.94l-1.13-1c0-4.74,0-9.48-.17-14.21-.13-3.47-.57-6.92-.87-10.37l-23-.41q0-11.35,0-22.72c-2.37-7.23-10-8.43-14.76-12.9-1.54-1.44-3.8-3.1-4-4.83-1.4-13.88-8.09-25.65-14.22-37.69-.44-.88-.22-2.09-.3-3.15,1.11.12,2.57-.16,3.28.44a69.89,69.89,0,0,1,5.31,5.42H471.3c-2.42-2.25-4.37-4.17-6.42-6-2.45-2.11-3.42-4.54-2.52-7.14,6.82-1.41,13.77,1.36,18.52-2.67,3.74,5.84,7.12,12.15,11.5,17.67,4.56,5.77,7.61,13.78,18.26,14.12,0-9.92,0-19.8,0-29.69a34.14,34.14,0,0,1,.82-5.24q.17,11.43.34,22.85v24.89h23.58V441.62l1.12-.31v25.22c6.81-.47,12.88-1.09,19-1.24,3.08-.08,4-1.17,3.94-4.11-.14-6.95,0-13.9,0-20.85h0c6.87,0,13.75.1,20.62-.2.81,0,2-2.19,2.18-3.47.55-4.4.72-8.85,1-13.28.68.39,1.74.63,2,1.2,1.94,4.55,4.66,7.16,10,5.11.64-.25,2.43.75,2.65,1.48,1.8,5.87,7,10.81,4.44,17.93-1,2.83-.91,6.16-.86,9.25.11,8.83,1,17.69.48,26.48a28.6,28.6,0,0,1-4.64,13.24c-3.21,4.95-2.33,9.82-1.31,14.65.36,1.72,3.25,3.72,5.26,4.08,3.69.67,4.07,2.12,3.5,5.44-.33,2,1,4.22,1.59,6.35l1.84-.48V515.3l3-.13h14l4.86-.06c.68-1.44,1.88-2.86,1.93-4.32.23-6.88.14-13.77.17-20.65,6.61,0,13.31-.65,19.82.2,4.56.59,5-.86,5-4.55-.12-13.23-.1-26.46,0-39.69A32.58,32.58,0,0,1,658,440.38ZM476.92,457.25l.7-1.41-3-1.47-.69,1.41Z"/><path class="cls-27" d="M681,487.66v24.12h-.87q0-33.57,0-67.14a7,7,0,0,1,.52-1.85Q680.86,465.23,681,487.66Z"/><path class="cls-28" d="M363.31,587.66h-3.14a58.83,58.83,0,0,0-14.6-.94c-3.3.14-4.34-1.14-4.21-4.32.19-4.94.08-9.89,0-14.84,0-.48-.81-.93-1.24-1.4l-1.53-2.39c.24-13.06.69-26.13.67-39.2,0-16-.47-32.09-.72-48.14-.06-3.76-.06-7.51-.09-11.27,0-6.52,0-13,.12-19.55a34.76,34.76,0,0,1,.87-5.21c5.4,0,10.81-.31,16.19,0,3,.16,5.86,1.3,8.79,2l-.11,0a15,15,0,0,0-1,3.65q-.1,19.89,0,39.78a14.83,14.83,0,0,0,.79,3.27c1.5.93,3,2.67,4.5,2.65,6.52-.09,13-.69,19.79-1.13V466.27a3.4,3.4,0,0,0,.7-.17L412,467.23q.06,11.44.11,22.88c-6.12,0-12.25.14-18.36-.06-3.33-.12-4.82.76-4.66,4.4.28,6.6.16,13.23.22,19.84q-.15,11.73-.28,23.45L364.86,539c-.53,1.59-1.49,3.17-1.5,4.76-.13,11.89-.1,23.79,0,35.69a22.53,22.53,0,0,0,.81,4.23l0,3-.9,1.07Z"/><path class="cls-4" d="M655,684.26l-22.67.1c.24-6,.89-12.11.61-18.13-.21-4.38,2-5.52,5.42-5.65,5.9-.23,11.82-.18,17.73-.25l13.77.51c-1.75.5-3.48,1.38-5.24,1.43-9.89.28-8.37-1.24-8.63,8.88C655.84,675.53,655.31,679.89,655,684.26Z"/><path class="cls-8" d="M681.68,687.18q-.39,9.93-.77,19.86Q681.3,697.11,681.68,687.18Z"/><path class="cls-4" d="M656,694.2c-.31-2.67-.61-5.34-.92-8C658.52,688.51,657.13,691.37,656,694.2Z"/><path class="cls-29" d="M606.33,542.9c.63-2.93,2-4.32,5.44-4.1,7.36.49,14.76.47,22.15.65-.67,1.33-1.87,2.64-1.92,4-.25,6.59-.19,13.19-.24,19.79H608.11v24.24a1.77,1.77,0,0,1-.74.29q-.14-12.06-.28-24.12l-.15-13.87c-.19-1-.39-2-.59-3Z"/><path class="cls-17" d="M608.11,587.47V563.23h23.65c.1,6.74.1,13.49.36,20.24.12,3.21-1,4.41-4.25,4.26-4.77-.21-9.56-.14-14.33,0a35.92,35.92,0,0,0-5.27.92C608.22,588.25,608.17,587.86,608.11,587.47Z"/><path class="cls-23" d="M608.11,587.47c.06.39.11.78.16,1.16q-.07,12-.16,24.06l-24.74-.17q0-11.91,0-23.82l.08.16.43,0,.44,0v19.54a23.12,23.12,0,0,0,.9-7.8c0-11,0-10.89,10.75-11,3.68,0,7.35-.61,11-.94l.33-.9A1.77,1.77,0,0,0,608.11,587.47Z"/><path class="cls-28" d="M530.76,587.57H513c0,.37,0,.74,0,1.11,2.93,0,5.89-.23,8.79.05a90.23,90.23,0,0,1,13.85,2c7.66,2,14.79-.6,22.13-1.61a73,73,0,0,1,8.11-.5c2.43-.06,3-.59,4.24-3.42,2.62-6.16.82-14.14,7.16-18.66,1.79-1.27,4.08-1.83,6.14-2.71l.15,25.06-.08-.16a23.58,23.58,0,0,0-1,4.59c-.14,4.61-.24,9.25,0,13.85.2,3.53-1.15,4.65-4.56,4.48-4.61-.24-9.24-.08-13.86,0-.22,0-.42,1-.63,1.59-2.93-.17-4,1.18-3.88,4.11.15,6.35,0,12.71,0,19.07a29,29,0,0,1-5.12,1c-6.21.14-12.42.08-18.64.1-7.36-.32-14.72-.73-22.09-.82-.64,0-1.8,2.09-1.89,3.27-.5,7-.77,14.12-1.11,21.19l-1,.25L450,661.16c-6.55-.26-13.1-.61-19.66-.77-5.43-.12-10.87,0-17.33,0,0-6.23-.24-12.26.08-18.27.23-4.41-1.39-5.83-5.7-5.59-5.74.31-11.52.07-17.84.07-.17-2.6-.31-4.83-.46-7.06q0-3-.05-6.07-.06-4.87-.11-9.75c2.37-.38,4.73-.93,7.11-1.11,6-.47,12-.78,18-1.15,22.66.06,45.32.18,68,.06,1.31,0,3.7-1.92,3.75-3,.3-6.88.08-13.79,0-20.7l11.68-1.19c3.27.06,6.53.09,9.8.19Q519,587.15,530.76,587.57Z"/><path class="cls-6" d="M389.39,709.3c-.08-8.35-.11-16.7-.31-25a26.59,26.59,0,0,0-1.1-5q0-4,0-7.92c0-.67,0-1.33.05-2q0-3.91.05-7.82l1.83-3.11c2.2.89,4.38,2.5,6.6,2.55,11.71.23,23.43,0,35.14.1,1.82,0,3.64.77,5.46,1.19l.42,1.15q0,9.95,0,19.89c-.07.3-.13.6-.2.9a.4.4,0,0,0,.42.23l-.58,2-.69,7.73a7.89,7.89,0,0,1-.49-3.92c.49-3.87-1-5.26-5-5.09a93.16,93.16,0,0,1-12.8-.76c-3.58-.35-5.52.31-5.31,4.66.32,6.59,0,13.22-.09,19.84Z"/><path class="cls-30" d="M414.09,611.43c-6,.38-12,.69-18,1.16-2.38.18-4.74.73-7.11,1.11l-25.4-.41a1.93,1.93,0,0,1-.1-.72c6.41,0,12.83-.19,19.23.07,4.19.17,5.57-1.72,5.51-5.56-.1-6.07-.05-12.16-.06-18.24,6.78-.06,13.57.06,20.34-.25,4.16-.2,5.68,1.55,5.62,5.47C414,599.85,414.09,605.64,414.09,611.43Z"/><path class="cls-14" d="M450,661.16l59.52.25a2.88,2.88,0,0,1,0,.88l-71.67.11-.06,0Z"/><path class="cls-30" d="M389.07,623.45q0,3,.05,6.07Q389.11,626.49,389.07,623.45Z"/><path class="cls-6" d="M389.92,639.43c-.25-.61-.51-1.22-.77-1.83C389.41,638.21,389.67,638.82,389.92,639.43Z"/><path class="cls-17" d="M437.57,663.37l-.42-1.15.69.14.06,0Z"/><path class="cls-6" d="M389.94,656.38a4.18,4.18,0,0,1-.28-.71c0-.08.19-.2.29-.3C390,655.71,389.94,656,389.94,656.38Z"/><path class="cls-4" d="M386.05,684.29c.37,7.74.73,15.47,1.11,23.56-6,.39-11.54,1.17-17.09,1-4.79-.14-6.7,1.4-6,6.18a18.29,18.29,0,0,1-.3,3.94,12.59,12.59,0,0,1-.48-1.9c-.65-7.24-1.33-7.92-8.3-7.93-5.13,0-10.26,0-15.39.05L339.13,694l.21-8.73c5.93,0,11.88.21,17.8,0,3.9-.15,5.44,1.33,5.12,5.19a21.62,21.62,0,0,0,.68,7.68c.51-4,1-8,1.55-12.33Z"/><path class="cls-8" d="M388.07,669.31c0,.66,0,1.32-.05,2C388,670.63,388.05,670,388.07,669.31Z"/><path class="cls-15" d="M364.41,442.41c-2.93-.7-5.83-1.84-8.79-2-5.38-.31-10.79,0-16.19,0q-.06-12-.13-24.09a1.22,1.22,0,0,0,.15-.7l11,0a17.63,17.63,0,0,0,3.28.75c10,.38,20,.59,30,1.12,1.52.08,4.21,1.46,4.26,2.35.36,6.67.2,13.37.2,19.85l-6.92,1.44Z"/><path class="cls-16" d="M608,637.38c.05,6,0,12.09.19,18.14a41.63,41.63,0,0,0,.92,5.71c-.31,4.41-.67,8.81-.91,13.22-.2,3.46-.25,6.92-.36,10.39l-23.47.44-1.07-.07.93-31.78v-14c.25-.63.5-1.26.76-1.89Z"/><path class="cls-11" d="M584.4,685.28l23.47-.44.21,13.45L608,706c.09,1.08.17,2.16.26,3.25l-.09-.14-24,.07a1.89,1.89,0,0,1-.75-.19Q583.92,697.15,584.4,685.28Z"/><path class="cls-7" d="M632,686.1c0,5.62-.07,11.26.18,16.88.17,3.82-1.13,5.42-5.1,5.25-6-.24-11.92-.08-17.88-.1,0-6.41-.1-12.82.12-19.22,0-1.23,1.39-3.47,2.14-3.47C618.31,685.44,625.15,685.82,632,686.1Z"/><path class="cls-6" d="M608,706l.06-7.73Z"/><path class="cls-14" d="M243.78,352.68c0,3.95.21,7.91,0,11.85-.18,3.32,1.19,4.28,4.33,4.17,6.25-.2,12.51-.12,18.77-.15a4.91,4.91,0,0,1,.84.14l1,.14,12-.06h6l1.06.78.1-.05.84,21v3c-5.13,0-10.27.15-15.39-.08-3.4-.15-4.65.93-4.62,4.47,0,4.52-.62,9.05-1,13.57-.3-5-.93-10-.81-15,.1-3.93-1.15-5.2-5-5-6.24.27-12.5,0-18.75,0q0-19.35-.07-38.7A7.46,7.46,0,0,1,243.78,352.68Z"/><path class="cls-3" d="M339.13,694l.45,15.21-.3,9.81a3.33,3.33,0,0,0-.61.27c-.09-3.37-.17-6.74-.26-10.11Z"/><path class="cls-10" d="M314.52,710.14l-.93-1Z"/><path class="cls-26" d="M340.11,566.17c.43.47,1.23.92,1.24,1.4.09,4.95.2,9.9,0,14.84-.13,3.18.91,4.46,4.21,4.32a58.83,58.83,0,0,1,14.6.94H340.5c-.1-1.34-.21-2.67-.31-4Q340.15,574.93,340.11,566.17Z"/><path class="cls-23" d="M650,247.86l-4.85,0Z"/><path class="cls-13" d="M313.33,223.13c-.15,2.36-.3,4.71-.44,7.07l-.21-6.77A4.22,4.22,0,0,1,313.33,223.13Z"/><path class="cls-30" d="M585,637.53c-.26.63-.51,1.26-.76,1.89v14l-.93,31.78c-2,0-3.92,0-5.88.07-6,.31-12,.68-18,1a38.31,38.31,0,0,0-5.74-1c-7.08-.14-14.16-.09-21.24-.11.67-4.86,1.76-9.7,1.92-14.58.29-9.3.07-9.29-9-9.32-5,0-9.94-.1-14.9-.15.34-7.07.61-14.14,1.11-21.19.09-1.18,1.25-3.28,1.89-3.27,7.37.09,14.73.5,22.09.82a2.18,2.18,0,0,0,0,.88v22.87c6.3,0,12.24-.26,18.14.09,4.82.28,6.38-1.63,5.48-6.11q.15-8.85.29-17.69l23.72-.15,1.14.12A1.67,1.67,0,0,0,585,637.53Z"/><path class="cls-14" d="M584.39,637.53l-1.14-.12a28.4,28.4,0,0,0-4.68-.9c-4.8-.12-9.61-.15-14.41,0-2.78.08-4-1-3.76-3.75.37-4.76.88-9.52.88-14.29,0-3.55,1.74-4,4.65-4,5.8.13,11.6,0,17.39,0,.33,4.53.73,9.06,1,13.6C584.44,631.25,584.36,634.39,584.39,637.53Z"/><path class="cls-21" d="M583.32,614.52c-5.79,0-11.59.13-17.39,0-2.91-.07-4.65.4-4.65,4,0,4.77-.51,9.53-.88,14.29-.21,2.79,1,3.83,3.76,3.75,4.8-.15,9.61-.12,14.41,0a28.4,28.4,0,0,1,4.68.9l-23.72.15-.12-1.16c0-6.36.19-12.72,0-19.07-.07-2.93.95-4.28,3.88-4.11l15.08.13Z"/><path class="cls-26" d="M578.41,613.35l-15.08-.13c.21-.55.41-1.59.63-1.59,4.62-.09,9.25-.25,13.86,0,3.41.17,4.76-1,4.56-4.48-.25-4.6-.15-9.24,0-13.85a23.58,23.58,0,0,1,1-4.59q0,11.91,0,23.82Z"/><path class="cls-14" d="M703.86,320.84c-6.25,0-12.5-.11-18.74.12-3.3.12-4.36-1.11-4.25-4.3.22-6.27.15-12.55.21-18.83L703.76,296Q703.81,308.4,703.86,320.84Z"/><path class="cls-28" d="M388.14,588.84c0,6.08,0,12.17.06,18.24.06,3.84-1.32,5.73-5.51,5.56-6.4-.26-12.82-.07-19.23-.07l-.15-24.91,0,0,1.25-.07,15.84.27,3.89.54h1.88Z"/><path class="cls-10" d="M347.29,613h0Z"/><path class="cls-24" d="M582.67,831.38q-.25-13.27-.52-26.55l.72-1.1,25.45,2.14,22.45,0,.54,17.68c.9,5.36-1.55,6.84-6.58,6.17-4.18-.55-8.45-.45-12.69-.64-3.3.19-4.14-1.56-4-4.59.19-5,0-10.1,0-15.16a28.08,28.08,0,0,0-.51,5.45c-.36,5.38-.82,10.75-1.24,16.13Z"/><path class="cls-1" d="M582.67,831.38l23.64-.51c0,2.81.07,5.63-.07,8.43-.27,5.39-.66,10.78-1,16.17l-21.8,1.22-2.06-1.21Q582,843.44,582.67,831.38Z"/><path class="cls-4" d="M630.77,805.84l-22.45,0,0-24.13h22.43c.35-7.52.71-15.19,1.07-22.86.09,14.5.2,29,.2,43.49C632.05,803.53,631.22,804.68,630.77,805.84Z"/><path class="cls-1" d="M612.05,829.05c4.23.19,8.5.09,12.68.64,5,.67,7.48-.81,6.58-6.17.3,6.5.68,13,.87,19.48.12,4.09,0,8.18-.09,12.28l-16.9.09c-2-.82-5.64-1.74-5.6-2.43C610.08,845,611.14,837,612.05,829.05Z"/><path class="cls-4" d="M612.05,829.05c-.91,8-2,15.91-2.46,23.89,0,.69,3.65,1.61,5.6,2.43l-8,.12-2,0c.35-5.39.74-10.78,1-16.17.14-2.8.06-5.62.07-8.43.42-5.37.88-10.74,1.24-16.12a28.08,28.08,0,0,1,.51-5.45c0,5.06.14,10.12,0,15.16C607.9,827.49,608.74,829.24,612.05,829.05Z"/><path class="cls-8" d="M607.22,855.49l8-.12,16.9-.09c-1.66.4-3.33,1.18-5,1.14C620.48,856.25,613.85,855.82,607.22,855.49Z"/><path class="cls-2" d="M389.51,780.82q-.22-12-.43-24l25,.07,5-.16,14.87,0,2,.24v24.26l26.77-1.26c6.54.28,13.09.71,19.63.67.85,0,2.35-2.45,2.4-3.81.25-6.74.11-13.49.11-20.72h4.8l16,.72,4.88.05,4.1-.65,1.86-.05a39.31,39.31,0,0,0,5.26.71c10.69.09,21.39,0,32.08.19,1.89,0,3.76,1.26,5.63,1.94.08.66.15,1.32.23,2l-.09,21v22.78a46.52,46.52,0,0,1-6.16.85q-43.36.11-86.72.09c-2.64,0-5.28.11-7.92.17q-20.31-.07-40.61-.18c-1.48,0-2.95-.18-4.42-.27,0-6.43,0-12.86.08-19.29.07-3.6-1.06-5.44-5.13-5.29C402.37,781.12,395.94,780.86,389.51,780.82Z"/><path class="cls-22" d="M389.51,780.82c6.43,0,12.86.3,19.28,0,4.07-.15,5.2,1.69,5.13,5.29-.11,6.43-.06,12.86-.08,19.29l-22.69.13c-.65-1.15-1.83-2.29-1.85-3.45C389.22,795,389.41,787.92,389.51,780.82Z"/><path class="cls-6" d="M559.67,804.79V782l23.62-1.1a6.57,6.57,0,0,0,.12.89l-.54,21.93-.72,1.1Z"/><path class="cls-1" d="M339.28,719l.3-9.81c5.13,0,10.26-.05,15.39-.05,7,0,7.65.69,8.3,7.93a12.59,12.59,0,0,0,.48,1.9l.12,16.07c0,.65,0,1.3,0,2l.06,19c-.07.09-.23.2-.21.28a4,4,0,0,0,.22.64c0,.69,0,1.39,0,2.09-.08.09-.24.2-.22.27a3.66,3.66,0,0,0,.23.63q0,9.93,0,19.86c-6.92.37-13.83.85-20.75,1.08-3.9.13-3.84-2.93-3.85-5.61,0-14.59,0-29.18,0-43.76C339.38,727.3,339.32,723.15,339.28,719Z"/><path class="cls-22" d="M433.94,756.68l-14.87.06-5-.82c-.55-7.49-1.11-15-1.7-23-5.37,0-10.79.27-16.17-.08-4.77-.32-6,1.82-6,6.11,0,4.69-.46,9.4-.72,14.09l-.12-43.71,23.48-.48,1.37.53c-.06,6.29,0,12.57-.22,18.85-.12,3.15,1.17,4,4.08,3.92,6.28-.07,12.56.13,18.84.22l0,.54c0,6.07.22,12.16-.16,18.21C436.69,753,434.94,754.82,433.94,756.68Z"/><path class="cls-5" d="M389.51,753c.26-4.69.76-9.4.72-14.09,0-4.29,1.19-6.43,6-6.11,5.38.35,10.8.08,16.17.08.59,8.05,1.15,15.54,1.7,23,0,.33,0,.65,0,1l-25-.07C389.22,755.56,389.37,754.29,389.51,753Z"/><path class="cls-4" d="M363.88,737c0-.65,0-1.3,0-2C363.87,735.7,363.88,736.35,363.88,737Z"/><path class="cls-4" d="M364,756.88a4,4,0,0,1-.22-.64c0-.08.14-.19.21-.28A1,1,0,0,1,364,756.88Z"/><path class="cls-4" d="M364,759.87a3.66,3.66,0,0,1-.23-.63c0-.07.14-.18.22-.27A1,1,0,0,1,364,759.87Z"/><path class="cls-3" d="M340.28,830.59l-2.22-.05c.11-.33.23-.65.34-1l.84-1q-.08-10.35-.15-20.71l.54-4.82.93,0v7.77l.53,1q-.22,8.84-.46,17.67C340.52,829.84,340.4,830.21,340.28,830.59Z"/><path class="cls-1" d="M341.09,811.8l-.53-1,.71-.1Z"/><path class="cls-6" d="M313.51,730.12c0-1.45-.09-2.91-.13-4.37C313.42,727.21,313.47,728.67,313.51,730.12Z"/><path class="cls-6" d="M314.43,734.26a2.18,2.18,0,0,0-.74-.26l0-2C313.91,732.79,314.17,733.52,314.43,734.26Z"/><path class="cls-4" d="M339.24,828.54l-.84,1Z"/><path class="cls-8" d="M608.24,726.92,608,778.85c-1.71.65-3.41,1.8-5.14,1.87-6.2.24-12.42.12-18.63.13l-.57-16.9c0-1.37.07-2.74.1-4.11,0-1,.07-1.91.1-2.86,0-1.7.07-3.4.1-5.1l.06-1.8-.08-7.21-.16-6.84c-.13-1-.25-2-.38-2.95l.29,0,.19-.21.51-6.82Z"/><path class="cls-3" d="M584.26,780.85c6.21,0,12.43.11,18.63-.13,1.73-.07,3.43-1.22,5.14-1.87.1,1,.21,1.92.31,2.89q0,12.06,0,24.13l-25.45-2.14.54-21.92Z"/><path class="cls-6" d="M608.24,726.92l-23.82-.85-.68-.13q.24-8.37.47-16.74l24-.07Q608.22,718,608.24,726.92Z"/><path class="cls-23" d="M413.18,344.77c-.07-.36-.14-.72-.22-1.08,0-6.1.29-12.2,0-18.29-.16-3.78,1.22-4.94,4.84-4.72,4.27.25,8.57,0,12.85.07,3.46.05,5.54-.84,5.49-5-.06-5.25.56-10.5.88-15.75.66-1,1.32-1.93,2-2.89l21.83,0,2,.94a32.89,32.89,0,0,0-1.11,5.71c-.11,5.39,0,10.78.1,16.17l-.27,2.16c-6.2-.37-12.41-.64-18.6-1.17-4.3-.36-6.44.84-6.12,5.67.36,5.56.11,11.16.13,16.75l-.77,1.51Z"/><path class="cls-12" d="M462.9,298l-2-.95c0-6.12.09-12.25-.05-18.37-.07-3.39,1.26-4.72,4.69-4.69,13.24.11,26.49.07,39.73,0,3.74,0,5.44,1.69,5.39,5.43-.07,5.46,0,10.92,0,16.39,0,.36,0,.72,0,1.08Z"/><path class="cls-14" d="M387.2,295c0-6.13.07-12.27,0-18.4,0-2.48.78-3.68,3.41-3.64,5.93.09,11.87-.08,17.8.14,1.19,0,3.19,1.16,3.36,2.06,1,5.17,1.69,10.41,2.28,15.65.37,3.23-1.41,5.11-4.56,5.28-6.76.38-13.54.54-20.3.8Z"/><path class="cls-14" d="M288.61,344.69q.51-11.42,1-22.83l23.85-.11,1,3.1v17.91a48.2,48.2,0,0,1-6.19,1.95c-6.15,1.11-12.34,2-18.51,3C289.4,346.68,289,345.69,288.61,344.69Z"/><path class="cls-13" d="M546.17,271.78c-3.47,0-7.89,1.28-10.11-.39-1.91-1.43-1.29-6.22-1.82-9.52-.11-.65-.38-1.28-.47-1.93-1.52-10.5-.53-11.65,10-11.69,3.48,0,7,.06,10.43,0,2.84-.07,4.23,1,4.29,4,.1,5.27.48,10.54.81,15.81.17,2.71-1,4-3.72,4-3.15-.06-6.29,0-9.44,0Z"/><path class="cls-18" d="M387.19,319.84c-5.76.31-11.51.72-17.27.87a31.36,31.36,0,0,1-5.7-.88c0-6.3.11-12.6-.08-18.89-.09-3.08,1.09-4.05,4.06-4,6,.1,11.93-.08,17.89-.15l1.33,1.31q0,3.38-.05,6.76l0,1.15c0,3.6,0,7.21,0,10.81v1.1C387.26,318.56,387.23,319.2,387.19,319.84Z"/><path class="cls-23" d="M510.64,296.94c0-.36,0-.72,0-1.08l23.87,1c.29,6.39.65,12.77.77,19.15,0,.94-1.13,1.9-1.74,2.84l-22.91,0Z"/><path class="cls-12" d="M314.49,324.85l-1-3.1.84-8Z"/><path class="cls-12" d="M387.42,298.1l-1.33-1.31L387.2,295l2,1.89Z"/><path class="cls-12" d="M314.35,310.05c0-1.75,0-3.5,0-5.25C314.36,306.55,314.35,308.3,314.35,310.05Z"/><path class="cls-12" d="M439.05,297.1c-.67,1-1.33,1.93-2,2.89C437.72,299,438.38,298.06,439.05,297.1Z"/><path class="cls-12" d="M387.34,306l0-1.15a4.67,4.67,0,0,1,.26.8C387.64,305.76,387.44,305.89,387.34,306Z"/><path class="cls-12" d="M314.36,301.09c0-.43,0-.86,0-1.29C314.35,300.23,314.35,300.66,314.36,301.09Z"/><path class="cls-12" d="M387.3,317.92v-1.1a4.49,4.49,0,0,1,.29.77C387.61,317.68,387.41,317.81,387.3,317.92Z"/><path class="cls-11" d="M386.29,367.85l1.94-.37-.05.25,6.92.3c4.75.21,9.49.59,14.24.57,3.23,0,2.54,2.27,2.88,4l0,12c-.11,1-.22,2-.32,3-.63,4-2.8,5.37-7,5.06-6.23-.47-12.52-.15-18.78-.17Q386.22,380.17,386.29,367.85Z"/><path class="cls-30" d="M412.25,384.62l0-12,1.95-4.89,20.81-.14,4.06,1.16c-.37,6-1,12.09-1,18.13,0,3.76-1.24,5-4.87,4.69a95.51,95.51,0,0,0-11.35,0c-4.41.22-8.46.29-8.08-5.94C413.77,385.33,412.77,385,412.25,384.62Z"/><path class="cls-20" d="M435,367.61l-20.81.14c-2.71-7.56-2.67-15.24-1-23l23.08,0c.21,5.19.65,10.39.54,15.58C436.75,362.81,435.62,365.2,435,367.61Z"/><path class="cls-20" d="M395.1,368l-6.92-.3Z"/><path class="cls-6" d="M386.16,392.49c6.26,0,12.55-.3,18.78.17,4.19.31,6.36-1,7-5.06q.49,13.27,1,26.56c-.85.46-1.68,1.27-2.54,1.31-7.11.34-14.22.74-21.32.72-12.89,0-25.78-.35-38.66-.55l-11,0c0-6.39-.27-12.8,0-19.17.08-1.57,2-3.06,3-4.58l17.82-.21c6.64.28,13.29.6,19.93.85C382.23,392.58,384.19,392.5,386.16,392.49Z"/><path class="cls-13" d="M283.64,368.77h0Z"/><path class="cls-13" d="M268.71,368.83l-1-.14Z"/><path class="cls-13" d="M287.7,369.56l-1.06-.78Z"/><path class="cls-29" d="M560.37,320l23-.13c.3.32.6.63.89,1q.09,11.86.19,23.75c-.29.73-.58,1.46-.88,2.2-1.63-.68-3.25-1.93-4.9-1.95-29.11-.48-58.22-.78-87.34-1.2a34.17,34.17,0,0,1-5.75-1.07q.66-11.29,1.33-22.58l-.1-.14,12,.18a10.68,10.68,0,0,0,2.78.76c10.75,0,21.5-.05,32.25-.1Z"/><path class="cls-12" d="M584.4,344.6q-.09-11.88-.19-23.75c14.07,0,28.13.07,42.19-.12,3.66-.06,4.89,1,4.87,4.76,0,6.41.52,12.83.83,19.25-6.23,0-12.47-.12-18.69.1-1.47.06-2.9,1.27-4.34,2-.25,0-.5-.08-.75-.14-1.29-.61-2.57-1.71-3.88-1.75C597.76,344.65,591.08,344.67,584.4,344.6Z"/><path class="cls-12" d="M584.35,315.9c0-.69,0-1.38.08-2.07C584.4,314.52,584.37,315.21,584.35,315.9Z"/><path class="cls-17" d="M498.76,320l-12-.18a24.45,24.45,0,0,1,4.63-1c6.41-.11,12.83,0,19.25-.06l22.91,0c0,.32,0,.63,0,.95Z"/><path class="cls-15" d="M498.76,320l34.8-.22a2.44,2.44,0,0,0,.23.88c-10.75.05-21.5.11-32.25.1A10.68,10.68,0,0,1,498.76,320Z"/><path class="cls-15" d="M584.4,344.6c6.68.07,13.36,0,20,.3,1.31,0,2.59,1.14,3.88,1.75.23,1.71.46,3.41.68,5.12q-.29,7.38-.59,14.76L608,368.8c-6.9-.07-13.81-.25-20.72-.15-3,0-4.36-.92-3.82-4,0-1,0-2,0-3l0-3c0-2.3,0-4.6,0-6.9,0-1.65,0-3.3,0-4.95C583.82,346.06,584.11,345.33,584.4,344.6Z"/><path class="cls-20" d="M632,392.53q.06,11,.1,21.92c-7.14,3.35-14.51,2.22-21.88,1.11l-.06-.19q0-11.92.05-23.85Z"/><path class="cls-16" d="M608,368.8l.39-2.27.75,1.05q.11,23.88.22,47.77c-.07,13.39-.1,26.78-.23,40.17a44.2,44.2,0,0,1-.8,5.77c-.1-.71-.19-1.41-.29-2.11V370.71C608.05,370.07,608,369.44,608,368.8Z"/><path class="cls-17" d="M609.38,415.35q-.11-23.88-.22-47.77c.35,4.19.82,8.37,1,12.56.17,3.79,0,7.58.05,11.38q0,11.93-.05,23.85A2.33,2.33,0,0,1,609.38,415.35Z"/><path class="cls-16" d="M609,351.77c-.22-1.71-.45-3.41-.68-5.12.25.06.5.1.75.14C609.05,348.45,609,350.11,609,351.77Z"/><path class="cls-23" d="M609.38,415.35a2.33,2.33,0,0,0,.79,0l.06.19c0,7.23-.13,14.46,0,21.68,0,1.35,1.16,3.83,1.76,3.83,6.78-.08,13.57-.54,20.35-.9,6.06.15,12.12.26,18.17.47,1.76.06,3.51.4,5.27.62.08,4.8.21,9.6.23,14.41,0,8.67-.66,9.23-9.27,9.46-4.87.13-9.73.76-14.6,1.17l-22.88.87-.93-2.91c0-1,0-2,0-3a44.2,44.2,0,0,0,.8-5.77C609.28,442.13,609.31,428.74,609.38,415.35Z"/><path class="cls-30" d="M632.17,466.3c4.87-.41,9.73-1,14.6-1.17,8.61-.23,9.31-.79,9.27-9.46,0-4.81-.15-9.61-.23-14.41.36-.37.73-.74,1.1-1.1l1.1.22a32.58,32.58,0,0,0-1,5.72c-.09,13.23-.11,26.46,0,39.69,0,3.69-.44,5.14-5,4.55-6.51-.85-13.21-.21-19.82-.2a4,4,0,0,0-.44-.27Q632,478.1,632.17,466.3Z"/><path class="cls-14" d="M632.37,440.17c-6.78.36-13.57.82-20.35.9-.6,0-1.73-2.48-1.76-3.83-.16-7.22,0-14.45,0-21.68,7.37,1.11,14.74,2.24,21.88-1.11l1,1.17Q632.76,427.89,632.37,440.17Z"/><path class="cls-28" d="M608.35,461.29v3q0,12.9,0,25.81a2.14,2.14,0,0,0-.2.74q0,12.26.05,24.49v12.81l-1.84.48c-.58-2.13-1.92-4.38-1.59-6.35.57-3.32.19-4.77-3.5-5.44-2-.36-4.9-2.36-5.26-4.08-1-4.83-1.9-9.7,1.31-14.65A28.6,28.6,0,0,0,602,484.83c.52-8.79-.37-17.65-.48-26.48,0-3.09-.15-6.42.86-9.25,2.54-7.12-2.64-12.06-4.44-17.93-.22-.73-2-1.73-2.65-1.48-5.36,2.05-8.08-.56-10-5.11-.25-.57-1.31-.81-2-1.2a6.2,6.2,0,0,1-.61-1.87c.19-8.26.44-16.52.64-24.77.06-2.2.26-4.6-3.19-4.12H486.84v11.65c0,11.08,0,22.16-.15,33.24-.05,3.15,1.23,3.91,4.11,3.94,5.1.07,10.2.6,15.31.72a20.1,20.1,0,0,0,4.62-1l1,.33c-.09.6-.19,1.19-.28,1.79a34.14,34.14,0,0,0-.82,5.24c-.08,9.89,0,19.77,0,29.69-10.65-.34-13.7-8.35-18.26-14.12-4.38-5.52-7.76-11.83-11.5-17.67-4.75,4-11.7,1.26-18.52,2.67-.9,2.6.07,5,2.52,7.14,2.05,1.78,4,3.7,6.42,6H461.11a69.89,69.89,0,0,0-5.31-5.42c-.71-.6-2.17-.32-3.28-.44.08,1.06-.14,2.27.3,3.15,6.13,12,12.82,23.81,14.22,37.69.18,1.73,2.44,3.39,4,4.83,4.76,4.47,12.39,5.67,14.76,12.9-10.78,0-21.57.24-32.35,0-4-.1-8-1.46-12-2.06a11,11,0,0,0-4.06.35c-2.16.5-4.24,1.6-6.41,1.75-4.13.28-8.3-.1-12.43.2-1.19.08-3.22,1.52-3.26,2.4-.29,6.25-.15,12.51-.15,18.79l4.63.93-.12.57h-5.42a2.82,2.82,0,0,1-.28-1l0-21.75q-.45-12-.89-24.05c5.95,0,11.91-.31,17.84.07,4.51.28,5.93-1.84,6-5.73.05-5.29-.06-10.58.05-15.87.06-2.66-1.19-3.32-3.61-3.4-6.75-.23-13.49-.66-20.23-1q-.51-12.4-1-24.8l.84-26.18q-.51-13.29-1-26.56c.1-1,.21-2,.32-3,.52.34,1.52.71,1.5,1-.38,6.23,3.67,6.16,8.08,5.94a95.51,95.51,0,0,1,11.35,0c3.63.26,4.89-.93,4.87-4.69,0-6,.62-12.09,1-18.13,4.91-.36,9.82-.92,14.73-1,9-.23,8,1.17,8.08-8.31.05-5.11,0-10.23,0-15.35,5.39-.09,10.79-.07,16.17-.32a66.52,66.52,0,0,0,7.49-1.16,34.17,34.17,0,0,0,5.75,1.07c29.12.42,58.23.72,87.34,1.2,1.65,0,3.27,1.27,4.9,1.95,0,1.65,0,3.3,0,4.95,0,2.3,0,4.6,0,6.9,0,1,0,2,0,3s0,2,0,3c-.54,3.07.83,4,3.82,4,6.91-.1,13.82.08,20.72.15,0,.64,0,1.27,0,1.91a22.53,22.53,0,0,0-.81,4.23q-.07,40,0,80a22.79,22.79,0,0,0,.81,4.24C608.16,459.88,608.25,460.58,608.35,461.29Zm-1.41,3.3-.5-.14V488h.5Z"/><path class="cls-30" d="M414.22,537.83h5.42l.12-.57-4.63-.93c0-6.28-.14-12.54.15-18.79,0-.88,2.07-2.32,3.26-2.4,4.13-.3,8.3.08,12.43-.2,2.17-.15,4.25-1.25,6.41-1.75a11,11,0,0,1,4.06-.35c4,.6,8,2,12,2.06,10.78.28,21.57.06,32.35,0q0,11.35,0,22.72l0,.37-24.89.78a77.93,77.93,0,0,0-8.32-.76c-12.82.18-25.63.5-38.45.78Z"/><path class="cls-19" d="M535.42,441.62v49.45H511.84V466.18q.66-10.31,1.3-20.62a119.25,119.25,0,0,1,.42,16.25c-.16,3.54,1.18,4.68,4.58,4.46a86,86,0,0,1,10.89,0c3.4.21,4.71-.92,4.59-4.46-.23-6.76-.06-13.53,0-20.3l1.11-.28A1.25,1.25,0,0,0,535.42,441.62Z"/><path class="cls-30" d="M580.11,392.62c3.45-.48,3.25,1.92,3.19,4.12-.2,8.25-.45,16.51-.64,24.77a6.2,6.2,0,0,0,.61,1.87c-.31,4.43-.48,8.88-1,13.28-.16,1.28-1.37,3.44-2.18,3.47-6.87.3-13.75.19-20.62.2,0-5.62-.29-11.26.08-16.85.32-4.67-1-6.62-5.95-6.15-4.21.4-8.48.08-12.72.08l0-.5,18.53-1.31h22.73v-19Z"/><path class="cls-29" d="M559.43,415.6l-18.53,1.31,0,.5c4.24,0,8.51.32,12.72-.08,4.92-.47,6.27,1.48,5.95,6.15-.37,5.59-.09,11.23-.08,16.85h0l-22.89,1-1.12.31a1.25,1.25,0,0,1-.74-.39l-.27-25a1.11,1.11,0,0,0,.36-.67Z"/><path class="cls-21" d="M485.74,537.66l23,.41c0,6-.17,12.09,0,18.14a43.76,43.76,0,0,0,1.09,6.44l1.13,1c-.23.09-.46.2-.68.3l-26.42,0-18-1.1c5,0,10-.16,14.93,0,3.59.13,5.12-1.13,5-4.87-.18-6.63,0-13.27,0-19.91Z"/><path class="cls-30" d="M583.5,588.86l-.15-25.06,2.93-.14c2.44,0,4.89.08,7.34.07,4.49,0,9-.06,13.47-.09q.13,12.06.28,24.12l-.33.89-22.67.22-.44,0Z"/><path class="cls-29" d="M608.23,515.3q0-12.24-.05-24.48l23.55-.95a4,4,0,0,1,.44.27c0,6.88.06,13.77-.17,20.65,0,1.46-1.25,2.88-1.93,4.32l-4.86.06h-2.1a1.91,1.91,0,0,0-.92,0H611.26Z"/><path class="cls-30" d="M536.54,441.31l22.89-1c0,6.95-.13,13.9,0,20.85.06,2.94-.86,4-3.94,4.11-6.08.15-12.15.77-19,1.24Z"/><path class="cls-12" d="M530.76,587.57q-11.71-.41-23.43-.8c-3.27-.1-6.53-.13-9.8-.19,2.56-.29,5.13-.9,7.67-.79,3.85.16,5.43-1.56,5.36-5.19l-.3-16.67c.22-.1.45-.21.68-.3,4.21.32,8.42.75,12.64.94,3.43.16,6.87,0,11,0,0,7.11.14,13.83-.17,20.52C534.35,586,532,586.76,530.76,587.57Z"/><path class="cls-6" d="M533.57,441.51c0,6.77-.18,13.54,0,20.3.12,3.54-1.19,4.67-4.59,4.46a86,86,0,0,0-10.89,0c-3.4.22-4.74-.92-4.58-4.46a119.25,119.25,0,0,0-.42-16.25q-.64,10.32-1.3,20.62-.16-11.42-.34-22.85c.09-.6.19-1.19.28-1.8Z"/><path class="cls-28" d="M607.09,563.64c-4.49,0-9,.08-13.47.09-2.45,0-4.9,0-7.34-.07l2.6-2.16,1.26-.93-3.62-1.75c.07-.57,0-1,.17-1.2,1.91-2.2,3.94-4.29,5.78-6.55,3.63-4.44,7.94-7.65,13.86-8.17,0,1.29,0,2.58,0,3.86.19,1,.39,2,.59,3Z"/><path class="cls-17" d="M509.81,562.65a43.76,43.76,0,0,1-1.09-6.44c-.12-6.05,0-12.1,0-18.14.3,3.45.74,6.9.87,10.37C509.82,553.17,509.77,557.91,509.81,562.65Z"/><path class="cls-28" d="M476.92,457.25l-3-1.47.69-1.41,3,1.47Z"/><path class="cls-28" d="M625.21,515.17l4.86-.06Z"/><path class="cls-28" d="M611.26,515.17h0Z"/><path class="cls-28" d="M622.19,515.17a1.91,1.91,0,0,1,.92,0Z"/><path class="cls-17" d="M386.13,588.44h-1.88l-3.89-.54-15.84-.27c-.12-.34-.23-.67-.35-1l0-3c.11-12.75.2-25.51.34-38.26,0-2.14.25-4.28.38-6.42L389,537.74l1,.15,22.89,1q.45,11.94.91,23.87c-7.25,0-14.51.11-21.76-.06-3-.06-4.09,1-4,4a116.27,116.27,0,0,1-.05,14.34c-.41,4.7,1.37,6.22,5.83,5.7,1.35-.15,2.79.55,4.19.86Z"/><path class="cls-19" d="M364.41,442.41l16.84-1.26c2.83.75,7.46-1.72,7.46,4.14l0,2c0,3.65-.05,7.29-.08,10.94v6l-.2,2v24.34c-6.75.44-13.27,1-19.79,1.13-1.49,0-3-1.72-4.5-2.65q.11-23.34.19-46.7Zm22.78,12v-4.95c0-7.56-.65-8.16-8.2-7.09-4.14.59-10,0-11.92,2.39-2.14,2.64-.8,8.19-.76,12.47.09,10.37-1.42,8.87,8.86,8.94C387.19,466.27,387.19,466.21,387.19,454.43Z"/><path class="cls-30" d="M388.6,464.22v-6c0-3.65,0-7.29.08-10.94l0-2c.08-4.32,2.55-5.21,6.43-5,5.64.29,11.3.07,17,.06q.5,12.41,1,24.8L412,467.23,389.1,466.1Z"/><path class="cls-29" d="M412,467.23l1.09-2.09c6.74.35,13.48.78,20.23,1,2.42.08,3.67.74,3.61,3.4-.11,5.29,0,10.58-.05,15.87,0,3.89-1.46,6-6,5.73-5.93-.38-11.89-.08-17.84-.07l-1-1Q412.06,478.67,412,467.23Z"/><path class="cls-30" d="M412.12,490.11l1,1q.44,12,.89,24.05l-7.94-1-16.71.18c-.06-6.61.06-13.24-.22-19.84-.16-3.64,1.33-4.52,4.66-4.4C399.87,490.25,406,490.11,412.12,490.11Z"/><path class="cls-26" d="M364.86,539c-.13,2.14-.35,4.28-.38,6.42-.14,12.75-.23,25.51-.34,38.26a22.53,22.53,0,0,1-.81-4.23c-.07-11.9-.1-23.8,0-35.69C363.37,542.13,364.33,540.55,364.86,539Z"/><path class="cls-26" d="M364.3,442.39q-.09,23.36-.19,46.7a14.83,14.83,0,0,1-.79-3.27q-.07-19.89,0-39.78A15,15,0,0,1,364.3,442.39Z"/><path class="cls-18" d="M389.32,514.29l16.72-.18c.06.29.13.57.2.85-3.8,0-7.6.14-11.39,0-3.37-.14-4.8,1.18-4.72,4.62.13,6.11,0,12.21,0,18.32l-1-.15Q389.17,526,389.32,514.29Z"/><path class="cls-16" d="M388.6,464.22l.5,1.88a3.4,3.4,0,0,1-.7.17C388.47,465.59,388.53,464.9,388.6,464.22Z"/><path class="cls-15" d="M364.17,586.62c.12.33.23.66.35,1l-1.25.07Z"/><path class="cls-26" d="M606.94,549.77c-.2-1-.4-2-.59-3C606.55,547.77,606.75,548.77,606.94,549.77Z"/><path class="cls-17" d="M584.37,588.87l22.67-.22c-3.67.34-7.34.91-11,1-10.74.12-10.74,0-10.75,11a23.12,23.12,0,0,1-.9,7.8Z"/><path class="cls-15" d="M386.13,588.44l12-.81,41.85-.06,39.53-.6,1.92-.09,4.33.46.09.44c0,6.9.27,13.81,0,20.69-.05,1.11-2.44,3-3.75,3-22.66.12-45.32,0-68-.06,0-5.8-.07-11.59,0-17.38.06-3.92-1.46-5.67-5.62-5.47-6.77.31-13.56.19-20.34.25Z"/><path class="cls-15" d="M510.56,661.16c5,.05,9.93.14,14.9.15,9,0,9.27,0,9,9.32-.16,4.88-1.25,9.72-1.92,14.58l-22.84.13-.14-.3,0-22.75a2.88,2.88,0,0,0,0-.88Z"/><path class="cls-11" d="M481.43,586.88l-1.92.09c.38-.32.75-.9,1.12-.9,4.94-.05,5.71-2.22,4.63-6.86-1.15-5-1-10.21-1.41-15.33l26.41,0,.3,16.67c.07,3.63-1.51,5.35-5.36,5.19-2.54-.11-5.11.5-7.67.79l-11.68,1.19-.09-.43Z"/><path class="cls-13" d="M559.41,636.4l.12,1.16q-.15,8.85-.29,17.69c-.27-4.19-.78-8.38-.74-12.56,0-3.15-.91-4.39-4.19-4.29-6.23.19-12.46,0-18.69,0a2.18,2.18,0,0,1,0-.88c6.22,0,12.43,0,18.64-.1A29,29,0,0,0,559.41,636.4Z"/><path class="cls-29" d="M437,732.88l0-.54q0-11.62,0-23.23.16-11.37.31-22.75c.19-.65.38-1.31.58-2a23.45,23.45,0,0,0,4.34.79q33.69,0,67.39-.14l.14.3q0,10.35.08,20.72c-.45,2.81-2.19,3.39-4.7,2.77a15.66,15.66,0,0,0-3.86-.64c-11.86.26-23.71.64-35.56.88-3.16.07-3.81,1.81-3.79,4.51,0,6.19-.08,12.39-.14,18.58Z"/><path class="cls-16" d="M509.54,685q-33.71.09-67.39.14a23.45,23.45,0,0,1-4.34-.79.4.4,0,0,1-.42-.23.72.72,0,0,0,.2-.9q0-9.94,0-19.89l.33-1,71.67-.11Z"/><path class="cls-17" d="M437.23,686.36q-.15,11.37-.31,22.75a26.06,26.06,0,0,1-5.16.93c-5.84-.11-11.68-.44-17.52-.69l-1.37-.53c.06-6.62.41-13.25.09-19.84-.21-4.35,1.73-5,5.31-4.66a93.16,93.16,0,0,0,12.8.76c4-.17,5.47,1.22,5,5.09a7.89,7.89,0,0,0,.49,3.92Z"/><path class="cls-17" d="M437.59,683.26a.72.72,0,0,1-.2.9C437.46,683.86,437.52,683.56,437.59,683.26Z"/><path class="cls-16" d="M412.1,440.34c-5.66,0-11.32.23-17-.06-3.88-.2-6.35.69-6.43,5,0-5.86-4.63-3.39-7.46-4.14l6.92-1.44c0-6.48.16-13.18-.2-19.85-.05-.89-2.74-2.27-4.26-2.35-10-.53-20-.74-30-1.12a17.63,17.63,0,0,1-3.28-.75c12.89.2,25.78.51,38.67.55,7.1,0,14.21-.38,21.32-.72.86,0,1.69-.85,2.54-1.31Z"/><path class="cls-21" d="M559.5,686.31c6-.35,12-.72,18-1,2-.1,3.92,0,5.88-.07l1.07.07q-.46,11.87-.95,23.73c-1.8,0-3.61.07-5.42.08l-18.46.06Q559.52,697.73,559.5,686.31Z"/><path class="cls-15" d="M584.26,653.43v0Z"/><path class="cls-22" d="M559.57,709.15l18.46-.06c1.81,0,3.62-.05,5.42-.08a2,2,0,0,0,.76.19q-.24,8.37-.47,16.74c.06,2.32.11,4.63.17,6.95l-.19.21-.29,0c-1.95,0-3.91,0-5.86,0-6.12-.27-12.23-.59-18.34-.89.06-6.21.22-12.42.07-18.63,0-1.43-1.15-2.83-1.77-4.25Z"/><path class="cls-28" d="M559.57,709.15l-2,.12H535.25V731q-6.16-5.06-12.34-10.1c4.52-5.9,4.6-8.6-.51-11-3.92-1.86-8.4-2.55-12.64-3.77q0-10.35-.08-20.71l22.84-.13c7.08,0,14.16,0,21.24.11a38.31,38.31,0,0,1,5.74,1Q559.53,697.74,559.57,709.15Z"/><path class="cls-16" d="M535.62,638.4c6.23,0,12.46.19,18.69,0,3.28-.1,4.22,1.14,4.19,4.29,0,4.18.47,8.37.74,12.56.9,4.48-.66,6.39-5.48,6.11-5.9-.35-11.84-.09-18.14-.09Z"/><path class="cls-15" d="M380.36,587.89l3.89.54Z"/><path class="cls-9" d="M437,732.88l24.74-.72a28.51,28.51,0,0,0,4.24.67c12.86,0,25.72,0,38.59,0,8.28,0,16.57.24,24.85.1,3.31-.05,4.36,1.15,4.22,4.35-.21,4.63-.17,9.28,0,13.92.12,3.39-1.17,4.83-4.64,4.73-4.13-.13-8.27.1-12.41.17l-1.86.05-4.1.65-4.88-.05c-5.35-.23-10.69-.48-16-.72h-4.8c0,7.23.14,14-.11,20.72,0,1.36-1.55,3.8-2.4,3.81-6.54,0-13.09-.39-19.63-.67,0-5.95-.08-11.89.14-17.83.15-3.8-1.15-5.34-5.12-5.21-7.26.23-14.53.05-21.79,0l-2-.24c1-1.87,2.75-3.68,2.87-5.6C437.19,745,437,739,437,732.88Z"/><path class="cls-5" d="M516.56,756.14c4.14-.07,8.28-.3,12.41-.17,3.47.1,4.76-1.34,4.64-4.73-.17-4.64-.21-9.29,0-13.92.14-3.2-.91-4.4-4.22-4.35-8.28.14-16.57-.05-24.85-.1l17.17-1,10.78,0,3-.21,23.76.41c6.11.3,12.22.62,18.34.89,1.95.09,3.91,0,5.86,0,.13,1,.25,2,.38,2.95.05,2.28.11,4.56.16,6.84s0,4.8.08,7.2l-.06,1.81c0,1.7-.07,3.4-.1,5.1-.21.65-.41,1.3-.62,1.95-3.94-4.36-18.31-4.33-23.74.05-1.87-.68-3.74-1.91-5.63-1.94-10.69-.21-21.39-.1-32.08-.19A39.31,39.31,0,0,1,516.56,756.14Z"/><path class="cls-5" d="M436,756.93c7.26,0,14.53.19,21.79,0,4-.13,5.27,1.41,5.12,5.21-.22,5.94-.11,11.88-.14,17.83L436,781.19Z"/><path class="cls-22" d="M583.29,780.92,559.67,782q0-10.51.08-21c4.51-.34,9-.49,13.51-1.08,5.59-.75,9.79.08,9.94,6.94Z"/><path class="cls-9" d="M583.2,766.82c-.15-6.86-4.35-7.69-9.94-6.94-4.47.59-9,.74-13.51,1.08-.07-.66-.14-1.32-.22-2,5.43-4.38,19.8-4.41,23.74-.05l.52.91c0,1.37-.07,2.74-.1,4.11C583.53,764.91,583.36,765.86,583.2,766.82Z"/><path class="cls-5" d="M489.68,756.07c5.35.24,10.69.49,16,.72Z"/><path class="cls-9" d="M414.1,756.9c0-.33,0-.65,0-1l5,.82Z"/><path class="cls-5" d="M510.6,756.84l4.1-.65Z"/><path class="cls-11" d="M583.2,766.82c.16-1,.33-1.91.49-2.87l.57,16.9-.85,1a6.94,6.94,0,0,1-.12-.9Z"/><path class="cls-5" d="M414.24,709.35c5.84.25,11.68.58,17.52.69a26.06,26.06,0,0,0,5.16-.93q0,11.61,0,23.23c-6.28-.09-12.56-.29-18.84-.22-2.91,0-4.2-.77-4.08-3.92C414.27,721.92,414.18,715.64,414.24,709.35Z"/><path class="cls-11" d="M584,742.87c-.05-2.28-.11-4.56-.16-6.84C583.86,738.31,583.92,740.59,584,742.87Z"/><path class="cls-11" d="M583.91,732.89c-.06-2.32-.11-4.63-.17-6.95l.68.13Z"/><path class="cls-11" d="M583.79,759.84l-.52-.91c.21-.65.41-1.3.62-1.95C583.86,757.93,583.83,758.89,583.79,759.84Z"/><path class="cls-11" d="M584,751.88l.06-1.81Z"/><path class="cls-20" d="M510.64,318.84c-6.42,0-12.84,0-19.25.06a24.45,24.45,0,0,0-4.63,1l.1.14-25-.11c-.05-5.39-.21-10.78-.1-16.17A32.89,32.89,0,0,1,462.9,298l47.74-1.07Z"/><path class="cls-29" d="M461.87,344.06c0,5.12,0,10.24,0,15.35-.09,9.48,1,8.08-8.08,8.31-4.91.13-9.82.69-14.73,1l-4-1.16c.64-2.41,1.77-4.8,1.82-7.22.11-5.19-.33-10.39-.54-15.58l.77-1.52a14.35,14.35,0,0,0,2,.21c7.61,0,15.21-.07,22.82-.11A2.15,2.15,0,0,0,461.87,344.06Z"/><path class="cls-13" d="M461.89,319.89l25,.11q-.66,11.29-1.33,22.58a66.52,66.52,0,0,1-7.49,1.16c-5.38.25-10.78.23-16.17.32a2.15,2.15,0,0,1-.07-.67l-.18-21.34Z"/><path class="cls-11" d="M461.62,322.05l.18,21.34c-7.61,0-15.21.09-22.82.11a14.35,14.35,0,0,1-2-.21c0-5.58.23-11.18-.13-16.74-.32-4.83,1.82-6,6.12-5.67C449.21,321.41,455.42,321.68,461.62,322.05Z"/><path class="cls-29" d="M583.52,358.65c0-2.3,0-4.6,0-6.9C583.51,354.05,583.52,356.35,583.52,358.65Z"/><path class="cls-29" d="M583.48,364.66c0-1,0-2,0-3C583.5,362.68,583.49,363.67,583.48,364.66Z"/><path class="cls-26" d="M608.06,459.18a22.79,22.79,0,0,1-.81-4.24q-.07-40,0-80a22.53,22.53,0,0,1,.81-4.23Z"/><path class="cls-20" d="M631.73,489.87l-23.55.95a2.14,2.14,0,0,1,.2-.75,30.4,30.4,0,0,0,.81-4.7c.11-6.06.08-12.13.1-18.2l22.88-.87Q632,478.09,631.73,489.87Z"/><path class="cls-17" d="M609.29,467.17c0,6.07,0,12.14-.1,18.2a30.4,30.4,0,0,1-.81,4.7q0-12.9,0-25.81Z"/><path class="cls-11" d="M534.77,415.59a1.11,1.11,0,0,1-.36.67l-42.82.41c-1.33-1.55-3.24-2.89-3.86-4.69-.82-2.39-.64-5.13-.89-7.73V392.61h93.27l2,4c-.27,3.91-1,7.86-.69,11.71.51,5.3-1.58,6.45-6.46,6.24-8.94-.37-17.9-.11-26.86-.12H530.9v.75Z"/><path class="cls-12" d="M491.59,416.67l42.82-.41.27,25-1.11.28-21.79,0-1-.32c-.07-6.55-.29-13.1-.16-19.64.06-3.21-.95-4.34-4.26-4.28C501.41,417.38,496.5,416.9,491.59,416.67Z"/><path class="cls-29" d="M491.59,416.67c4.91.23,9.82.71,14.72.62,3.31-.06,4.32,1.07,4.26,4.28-.13,6.54.09,13.09.16,19.64a20.1,20.1,0,0,1-4.62,1c-5.11-.12-10.21-.65-15.31-.72-2.88,0-4.16-.79-4.11-3.94.18-11.08.12-22.16.15-33.24.25,2.59.07,5.33.89,7.72C488.35,413.78,490.26,415.12,491.59,416.67Z"/><path class="cls-21" d="M390.09,537.89c0-6.11.17-12.21,0-18.32-.08-3.44,1.35-4.76,4.72-4.62,3.79.15,7.59,0,11.38,0,6.84.06,6.73.06,6.89,6.82.11,5,.54,10.07.82,15.1a2.82,2.82,0,0,0,.28,1c0,.33-.07.66-.1,1l-1.14.07Z"/><path class="cls-12" d="M413.94,536.88c-.28-5-.71-10.06-.82-15.1-.16-6.76-.05-6.76-6.89-6.82-.06-.28-.13-.56-.19-.85l7.93,1Z"/><path class="cls-26" d="M606.94,464.59V488h-.5v-23.5Z"/><path class="cls-12" d="M413,538.9l1.14-.07c12.82-.28,25.63-.6,38.45-.78a77.93,77.93,0,0,1,8.32.76q.45,12,.91,23.93h-.06l-.95.91L437,562.9l-23.12-.13Q413.44,550.83,413,538.9Z"/><path class="cls-17" d="M461.8,562.74q-.45-12-.91-23.93l24.89-.78c0,6.64-.17,13.28,0,19.91.1,3.74-1.43,5-5,4.87-5-.19-9.95,0-14.93,0Z"/><path class="cls-6" d="M534.77,415.59l-3.87-.39v-.75h17.25c9,0,17.92-.25,26.86.12,4.88.21,7-.94,6.46-6.24-.36-3.85.42-7.8.69-11.71v19H534.77Z"/><path class="cls-20" d="M461.8,562.74l4,0,18,1.1c.42,5.12.27,10.38,1.42,15.33,1.08,4.64.31,6.81-4.63,6.86-.37,0-.74.58-1.12.9l-39.53.6-3-24.67,23.78.76.95-.91Z"/><path class="cls-23" d="M437,562.9l3,24.67-41.85.06c-1.4-.31-2.84-1-4.19-.86-4.46.52-6.24-1-5.83-5.7a116.27,116.27,0,0,0,.05-14.34c-.12-3,.93-4.08,4-4,7.25.17,14.51.06,21.76.06Z"/><path class="cls-6" d="M387.19,454.43c0,11.78,0,11.84-12,11.76-10.28-.07-8.77,1.43-8.86-8.94,0-4.28-1.38-9.83.76-12.47,1.95-2.43,7.78-1.8,11.92-2.39,7.55-1.07,8.2-.47,8.2,7.09Z"/><path class="cls-16" d="M388.68,447.3c0,3.65-.05,7.29-.08,10.94C388.63,454.59,388.65,451,388.68,447.3Z"/><path class="cls-20" d="M481.43,586.88l4.33.46Z"/><path class="cls-30" d="M521.71,731.91l-17.17,1c-12.87,0-25.73,0-38.59,0a28.51,28.51,0,0,1-4.24-.67c.06-6.19.17-12.39.14-18.58,0-2.7.63-4.44,3.79-4.51,11.85-.24,23.7-.62,35.56-.88a15.66,15.66,0,0,1,3.86.64c2.51.62,4.25,0,4.7-2.77,4.24,1.21,8.72,1.9,12.64,3.76,5.11,2.44,5,5.14.51,11q6.18,5,12.34,10.1a1.64,1.64,0,0,1,.22.78l-3,.21Z"/><path class="cls-16" d="M535.47,731.74a1.64,1.64,0,0,0-.22-.78V709.27h22.28c.62,1.42,1.74,2.82,1.77,4.25.15,6.21,0,12.42-.07,18.63Z"/><path class="cls-28" d="M521.71,731.91l10.78,0Z"/><path class="cls-21" d="M461.74,562.75l-.95.91Z"/></svg>