<svg id="Capa_1" data-name="Capa 1" xmlns="http://www.w3.org/2000/svg" viewBox="0 0 1020.47 1020.47"><defs><style>.cls-1{fill:#5a2a21;}.cls-2{fill:#2a1f26;}.cls-3{fill:#5b8267;}.cls-4{fill:#241b21;}.cls-5{fill:#3f1c15;}.cls-6{fill:#496851;}.cls-7{fill:#6e8e76;}.cls-8{fill:#f5a575;}.cls-9{fill:#511c1a;}.cls-10{fill:#5c8267;}.cls-11{fill:#d2a788;}.cls-12{fill:#2e3b49;}.cls-13{fill:#3f393c;}.cls-14{fill:#2e4a64;}.cls-15{fill:#f3bf98;}.cls-16{fill:#4f2821;}.cls-17{fill:#ad402f;}.cls-18{fill:#c35d46;}.cls-19{fill:#b34835;}.cls-20{fill:#ba4c39;}.cls-21{fill:#fcd2a5;}.cls-22{fill:#a03621;}.cls-23{fill:#f9f0e5;}.cls-24{fill:#864938;}</style></defs><path class="cls-1" d="M522.92,933.11l-23.75,0c-1-.6-1.95-1.64-3-1.71-10.56-.77-21.15-1.18-31.69-2.12-6.24-.56-12.42-1.87-18.62-2.85,1.47-9.75,2.92-19.5,4.43-29.24,1.78-11.5,3.65-23,5.42-34.49,2.32-15,4-30.14,7-45,3.65-18.22,8.52-36.21,12.46-54.38.58-2.65-1.06-5.77-1.67-8.68,1.3-8.78,3.37-17.22,10.87-23.16a.73.73,0,0,1,.68-.39l1.23-1.07-.11,0,1.35-.13-.3-.77,5.24-3.65c10.29-1.7,20.64-3.16,30.88-5.14,11.79-2.29,23.49-5,35.24-7.57l0,.16,17.83-6,0,.09,5.88-2.24-.08.07,4.14-1.83-.09.07,2.94-1.23-.07,0,2.09-1-.12.08,2.28-1,19.53-10.51,2.84-1.36c-3.23,13-6.43,26-9.78,39a5,5,0,0,1-2.46,2.72c-26.36,13.38-53.86,22.66-83.91,22.91a29.27,29.27,0,0,0-9.47,2c-3.52,1.26-3.94,4.87-2.62,7.35a8.81,8.81,0,0,0,6.42,3.86c4.33.17,8.71-1,13.07-1.51,20.68-2.53,40.86-7.06,60.28-14.62,4.44-1.72,8.85-3.55,13.93-5.6L591,773c-5,16.14-10.44,32.15-14.7,48.46s-7.29,32.94-10.86,49.43l-1,4.8-.08,3c0,1,0,1.93,0,2.89l-.93,3-.93,4.82-2.1,25.41-.88,2.91c0,2.62,0,5.24-.07,7.85.15,2.4-.35,3.83-3.39,4-9.73.45-19.45,1.18-29.16,2C525.53,931.55,524.24,932.53,522.92,933.11ZM490.83,831.77c9.41,0,16.3-6.61,16.26-15.67C507,806,500,799.55,490.74,800c-9.82.44-15.36,5.79-15.82,16.41C474.61,823.53,480.56,832.62,490.83,831.77Z"/><path class="cls-2" d="M245.37,774.35c5.62-6.06,10.62-12.86,17-18,15.5-12.61,31.55-24.58,47.57-36.55,4.27-3.2,9.23-5.49,13.87-8.2-6.16,20.3-12.32,40.59-18.64,61.45h20.36l28.29.34,30.86,1c-.81,4.09-1.47,8.21-2.44,12.26-4,16.63-8.36,33.19-12.09,49.88-2.54,11.33-4.24,22.84-6.31,34.26-5.85-.29-11.7-.84-17.54-.82-8.6,0-17.2.44-25.79.7l-16.71.31-1-.19-14.07-.1-5.09-3.49a32.81,32.81,0,0,0,1.21-3.67c4.26-20.3,8.37-40.63,12.76-60.9,2.11-9.73,4.76-19.35,7.37-29.87L275.82,774l-20.43.31Z"/><path class="cls-2" d="M728.3,871.87l-1.71,1-1.28.89h0l-1.92,1.12.07-.05-3.09,1.87h0c-13.06-.33-26.12-.7-39.18-1a32.11,32.11,0,0,0-5.2.75l-2.07,0c-1.34-.58-2.66-1.58-4-1.65-4.26-.22-8.54-.08-12.81-.09-6.13,0-6.1,0-5.06-5.79a50.8,50.8,0,0,0,.92-6.71c.25-5.57.31-11.14.45-16.71,0-.36.05-.72.08-1.08.54-.51,1.48-1,1.57-1.56,1.42-9.09,2.87-18.18,4-27.3,1.48-11.53,2.67-23.09,4.06-34.62.37-3.1,1.83-5.11,5.46-4.86,6,.41,12.09.7,18.13,1,13.73.68,27.46,1.21,41.18,2.06,4.5.27,8.94,1.33,13.77,2.08-1.55,11.49-3.3,22.49-4.46,33.54-1.3,12.37-1.46,24.88-3.33,37.15C732.89,858.61,735.91,866.85,728.3,871.87Z"/><path class="cls-3" d="M245.37,774.35l10,0h30.18V774h-9.76L305,772.74c-2.61,10.52-5.26,20.14-7.37,29.87-4.39,20.27-8.5,40.6-12.76,60.9a32.81,32.81,0,0,1-1.21,3.67C268.39,856.29,253,845.6,238,834.4c-5.94-4.44-11-10-16.48-15.11-1.88-1.72-3.83-3.37-5.74-5.06l.15-2c6.57-8.82,13.06-17.7,19.75-26.43C238.71,781.84,242.12,778.16,245.37,774.35Z"/><path class="cls-3" d="M807.29,809.46l-.85.84-1.92,1.28v-.21l-1.06,1.07.07-.09-1,1.06.19.1-2,2v-.1l-3,3,.06-.08-2.11,2,.1-.11-2.11,2,0-.18-2.07,2.25C774,840.48,755.39,855.21,735,867.65a27.7,27.7,0,0,1-.55-5.17c.82-10.66,1.52-21.33,2.73-31.94,1.93-16.87,4.23-33.7,6.37-50.54l.17.06c17.12,4.21,34.34,8.09,51.33,12.79,6.83,1.89,13.16,5.55,19.72,8.41l-1.3,1.54.08-.13c-.42.61-.84,1.23-1.27,1.84l.06-.09-1.07,1.14-.84.83-1.14,1.08.11-.07C808.67,808.08,808,808.77,807.29,809.46Z"/><path class="cls-2" d="M814.74,801.26c-6.56-2.86-12.89-6.52-19.72-8.41-17-4.7-34.21-8.58-51.33-12.79q4.86-25.38,9.7-50.77a318.36,318.36,0,0,1,55.06,37.76c6.34,5.34,12.46,11,18.73,16.38a15,15,0,0,0,3,1.57l-15.1,16.34Z"/><path class="cls-3" d="M673.94,876.44l2.07,0c11.81.35,23.62.67,35.42,1.1a30.11,30.11,0,0,1,5.08,1l-6.06,3.8-2.81,1.35.08-.11-6,3h.12l-3.16,1.82.07-.06-2,1.05.07-.06-2,1.06.09-.07-14.83,7,.07-.11-2.12,1,.11-.09-7,3.06.07-.11a32.49,32.49,0,0,0-5.15,1c-6.25,2.16-12.45,4.49-18.67,6.76.76-10.88,1.51-21.76,2.3-33.27l-27.87-1.33,4-1.58H604.84c-1-1-1.89-2-2.94-2.85s-2.13-1.44-3.52-2.37c4.16-.91,7-1.62,9.93-2.12.84-.14,2.47.17,2.57.56,1,3.87,4.46,3.14,6.86,3.3,6,.41,12,.13,18,.13l0-.94-4.74-1.13.06-1.52c2.43,0,4.86.08,7.29,0,3.32-.13,6.46-.39,5.05-5.24a68.27,68.27,0,0,1-1.33-8l5.09-.65c.59-3.21,1.29-5.93,1.56-8.7.29-3,.76-6.12.12-9-.81-3.55-1.22-6,3.41-6.71,1-.14,1.82-1.5,2.1-1.74-.93-2.38-1.85-4-2.12-5.66-.37-2.22.54-5-.52-6.66s-3.84-2.23-5.26-3c.91-1.69,3-4,2.51-4.89-3.48-6,2.11-7.26,4.84-10,.77-.78,1.38-1.7,2.8-3.5l-6.48,1.57c.75-2,1.22-3.3,1.68-4.54l3.77,1.21c2-6.17-2.82-8.23-7.54-11.06l6.06-2-2.92-2.17c0-.26,0-.51,0-.77H663c-3.26,23.92-6.4,47-9.54,70,0,.36-.06.72-.08,1.08-1.18,9.86-2.36,19.71-3.7,31ZM652.4,805.93l1.87-.35-.93-5.72-2.11.4Zm-19.28,65.8-1.13.93c.29.3.57.81.89.84s.71-.41,1.07-.65Zm24.64-69c-.1-.26-.14-.66-.33-.74s-.51.16-.77.26c.1.26.14.66.32.75S657.5,802.81,657.76,802.71Zm-4,28.32c-.1-.26-.14-.67-.33-.75s-.51.16-.77.27c.1.26.14.66.32.74S653.55,831.13,653.81,831Z"/><path class="cls-3" d="M302.78,870.77l1,.19a12.15,12.15,0,0,0,2.72.79c16.65.69,33.29,1.45,49.94,1.89,4.22.12,5.05,1.4,4,5.28-.9,3.38-1,7-1.41,10.49l0,0-2,10.81.08,0-1,3.13a1,1,0,0,1,.07.57c-23-9.3-45.76-19.16-66.48-33Z"/><path class="cls-4" d="M653.49,844.41c3.14-23.06,6.28-46.12,9.54-70H651.24l-35.2-.44-17.12-1a32.47,32.47,0,0,1,5.23-.75c17.18.26,34.36.64,51.54.92,5.88.09,6.35-.48,6.42-6.44,0-3.58-.15-7.18.16-10.73,1.24-14.33,2.06-28.66-.11-43-.77-5.08-1.77-10.14-2.67-15.2q2.61,10,5.21,20c-.31,18.8-.62,37.59-.92,56l79.35,5.65a.48.48,0,0,0,.39.53c-2.14,16.84-4.44,33.67-6.37,50.54-1.21,10.61-1.91,21.28-2.73,31.94a27.7,27.7,0,0,0,.55,5.17l-6.67,4.22c7.61-5,4.59-13.26,5.61-20,1.87-12.27,2-24.78,3.33-37.15,1.16-11,2.91-22,4.46-33.54-4.83-.75-9.27-1.81-13.77-2.08-13.72-.85-27.45-1.38-41.18-2.06-6-.29-12.09-.58-18.13-1-3.63-.25-5.09,1.76-5.46,4.86-1.39,11.53-2.58,23.09-4.06,34.62-1.17,9.12-2.62,18.21-4,27.3C655,843.44,654,843.9,653.49,844.41Z"/><path class="cls-4" d="M621.75,874.28l27.87,1.33c-.79,11.51-1.54,22.39-2.3,33.27l-.09,1.65A381,381,0,0,1,567,929.37c-14.64,1.73-29.4,2.53-44.1,3.74,1.32-.58,2.61-1.56,4-1.67,9.71-.79,19.43-1.52,29.16-2,3-.14,3.54-1.57,3.39-4,1.93,4.6,6.26,2.37,8.78,2,11.34-1.59,22.6-3.86,33.79-6.35,11.35-2.51,22.69-5.23,33.81-8.57,4-1.2,9.86-1.26,10.36-7.74.62-8.05,1.37-16.09,2.1-24.14.25-2.79-.63-4.07-3.79-4.12-12.62-.17-25.24-.56-37.86-.93-2.76-.09-5.53-.65-8.29-.62-11.29.13-22.58.4-33.86.61l1-4.8c.88.92,1.75,2.61,2.65,2.63,9,.18,18,.08,26.94.06Z"/><path class="cls-5" d="M356.18,903.83a1,1,0,0,0-.07-.57l1-3.13-.08,0,2-10.81,0,0c1.37-5.4,2.74-10.81,4.27-16.88l-42.81-1.88c8.59-.26,17.19-.68,25.79-.7,5.84,0,11.69.53,17.54.82-1.54,9.36-2.74,18.78-4.8,28-.85,3.84.11,5,3.48,6.27,21.85,8.22,44.39,14,67.12,19.15,2.86.65,5.11.35,6.33-2.62,1.65,4.92,6,4.54,9.92,4.86,6.2,1,12.38,2.29,18.62,2.85,10.54.94,21.13,1.35,31.69,2.12,1,.07,2,1.11,3,1.71-16-1.32-32.11-2-48-4.09-32.08-4.27-63.08-13-93.4-24.14A7.66,7.66,0,0,1,356.18,903.83Z"/><path class="cls-4" d="M716.51,878.6a30.11,30.11,0,0,0-5.08-1c-11.8-.43-23.61-.75-35.42-1.1a32.11,32.11,0,0,1,5.2-.75c13.06.26,26.12.63,39.18,1Z"/><path class="cls-6" d="M647.23,910.53l.09-1.65c6.22-2.27,12.42-4.6,18.67-6.76a32.49,32.49,0,0,1,5.15-1Z"/><path class="cls-6" d="M680,897.39l14.83-7Z"/><path class="cls-7" d="M302.78,870.77l-13.08.08-1-.18Z"/><path class="cls-6" d="M671.07,901.28l7-3.06Z"/><path class="cls-6" d="M701.7,886.66l6-3Z"/><path class="cls-6" d="M797.64,818.4l3-3Z"/><path class="cls-4" d="M720.38,876.68l3.09-1.87Z"/><path class="cls-6" d="M707.64,883.75l2.81-1.35Z"/><path class="cls-6" d="M698.66,888.47l3.16-1.82Z"/><path class="cls-6" d="M807.29,809.46c.69-.69,1.38-1.38,2.08-2.06Z"/><path class="cls-6" d="M800.66,815.5l2-2Z"/><path class="cls-6" d="M795.59,820.31l2.11-2Z"/><path class="cls-6" d="M791.55,824.32l2.07-2.25Z"/><path class="cls-6" d="M793.58,822.25l2.11-2Z"/><path class="cls-2" d="M831,784l1.37-1.76C832,782.87,831.49,783.45,831,784Z"/><path class="cls-6" d="M814.74,801.26l.31.08-1.61,1.46Z"/><path class="cls-6" d="M812.25,804.51c.43-.61.85-1.23,1.27-1.84C813.1,803.28,812.68,803.9,812.25,804.51Z"/><path class="cls-6" d="M804.52,811.58l1.92-1.28Z"/><path class="cls-4" d="M723.4,874.86l1.92-1.12Z"/><path class="cls-6" d="M696.7,889.46l2-1.05Z"/><path class="cls-6" d="M694.72,890.46l2-1.06Z"/><path class="cls-6" d="M677.93,898.31l2.12-1Z"/><path class="cls-2" d="M832.65,782.34c-.13-.22-.27-.44-.4-.67l.66.27A.33.33,0,0,1,832.65,782.34Z"/><path class="cls-2" d="M830,785.08l1.09-1.14Z"/><path class="cls-6" d="M811.24,805.56l1.07-1.14Z"/><path class="cls-6" d="M809.26,807.47l1.14-1.08Z"/><path class="cls-6" d="M803.45,812.44l1.06-1.07Z"/><path class="cls-6" d="M802.47,813.41l1-1.06Z"/><path class="cls-4" d="M725.31,873.75l1.28-.89Z"/><path class="cls-8" d="M612.85,689.52,593.32,700l-2.28,1,.12-.08-2.09,1,.07,0-2.94,1.23.08-.07-4.13,1.83.08-.07-5.88,2.24,0-.09-17.83,6,0-.16a11.17,11.17,0,0,0-2.44-.09c-13.57,2.44-27.11,5-40.7,7.36-4.15.73-8.48.53-12.57,1.46-3.59.81-6.95,2.61-10.41,4l-5.24,3.65-1.05.9.11,0-1.23,1.07a.73.73,0,0,0-.68.39c-6.28-7.14-14.36-11.26-23.47-13.65-5.22-1.36-10.52-2.52-15.63-4.22-11.48-3.82-23-7.74-32-16.26l-1-1.3v.11L410,693.24l.08.07-1.2-1.93.2-.08q-.39-17.1-.77-34.21A117.74,117.74,0,0,0,448,665.78c30.89,1.19,59.48-6.61,85.91-22.2,8-4.74,15.63-10.17,23.28-15.49,3.37-2.35,4.62-7.4,2.67-9.94-2.68-3.51-6-2.48-9.26-.77-1,.53-2,1.17-3,1.76a168.82,168.82,0,0,1-80.11,24.11c-20.6.94-40.89-1.61-61-5.73l-1.82-.53v.1l-1-.41c-9.27-3.28-18.74-6.11-27.78-9.94-31.55-13.36-53.16-36-63.79-68.5-1.43-4.36-1.79-9.07-2.64-13.61q-.76-7.33-1.52-14.67.32-11.65.61-23.32c.66-6.41,1.48-12.82,1.92-19.26.25-3.72-.11-7.48-.19-11.23q.61-6.25,1.24-12.5l1.89-19.51,2-4,0-1.95.43-2c.56-.86,1.53-1.68,1.61-2.58,1.08-12.37,1.78-24.78,3.11-37.12,1.56-14.57,3.49-29.11,5.56-43.62,1-6.82,2.63-13.55,4-20.33l-.18,0,1.16-2.89H331l1.3-3.85-.06.07q3.45-7.4,6.91-14.8l-.11.11,3.15-4.9-.06.08,1-1.15-.14.12,1-1.22-.16.09,1.35-1.81-.06.07,1.05-1.08-.09.09,1.07-1.09-.11.06,2-2-.07.11,1.12-1-.09,0,1.63-1.36h.09l3.28-2.73,2.7-1.8,5.22-3-.09.07,4-2-.07.06a3.16,3.16,0,0,0,1,0,163.35,163.35,0,0,1,47.4-7.9c.69,0,1.38-1,2.07-1.59l2-.07,4,.76h69.09l38.4,3.95c-2.32,10.37-5.29,13.17-15.46,14.68a20.77,20.77,0,0,0-4.28,1.06c-7,2.71-9.51,7.82-7.5,15,2,7-.91,12.51-6.07,16.84-3,2.48-7,3.66-10,6.15-3.1,2.61-6.3,5.71-8,9.28-3.42,7.33-5.88,15.1-8.66,22.72-.29.79-.14,1.73-.31,4.43l31.46-14.71,4.26-2.12h0l6-2-.05.07,2-1H514a18.69,18.69,0,0,0,3.85-.43,38.36,38.36,0,0,1,21.78-.52l-.07-.05,2,1.33c1.25,3,3.15,6,3.63,9.15,1.31,8.46,2.82,9.51,10.82,6.15,1.19-.5,2.31-1.15,3.45-1.73l3-1.23-.06.05,13.8-1h0l3,1,0,0,1,1c2.82,3.48,6.29,6.64,8.29,10.53,3.32,6.45,6.08,7,11.15,1.86,2.61-2.64,6.21-4.32,9.36-6.43,1,1.46,2.48,2.83,2.73,4.4a83.52,83.52,0,0,1,1.16,13.47c-.14,15.77-.53,31.53-.84,47.3-.11,5.24-.26,10.47-.4,15.7l-.61,3.43,0,0c-.06,5-.57,10.09-.07,15.06.69,6.75,2.08,12.67,10.75,11.57,3.29-3.2,7.28-5.95,9.74-9.69,6.58-10,12.9-20.14,22-28.17l5-4.78-.09.09,1.61-.36,8.93-4.22v.19l24.48.18,9.19,4c3.6,3.91,8,7.36,10.59,11.85,3,5.34,4.45,11.58,6.56,17.42.13.94.27,1.89.4,2.83-.87,8.27-1.56,16.57-2.68,24.81-.54,3.94-1.9,7.77-2.89,11.65-5.91,15.12-16.94,25.74-30.67,33.94-2.9,1.73-6,3.15-9,4.71l-1.89,1,.08,0-3,1,.05-.09h-3a71.85,71.85,0,0,0,0-7.51c-.56-5-3.73-8-8.13-8s-6.86,2.5-7.81,7.61c-.57,3.11-1.17,6.22-1.77,9.33l-19.39-3.25L619,572c-3.71,1.93-4.25,5.28-4.24,9q0,50.37-.07,100.75C614.69,684.33,613.49,686.93,612.85,689.52ZM345.05,361.88,344,363l.05-.07-1.14,2,.1-.09c-2.28,6.57-.5,11.47,5,13.67a20.1,20.1,0,0,0,4.47,1.09c7.44.1,14.89,0,22.34,0,4.12.67,8.23,1.48,12.37,2,3.21.38,6.25-.06,7.4-3.82h0l2.06-2.95-.06.06c2.77-3,2.55-6,0-9l0,.06-1-2.12-.8-.87-1.2-1,.09.05a20.06,20.06,0,0,0-2.79-1.84c-10.13-4.49-20.94-3.41-31.51-3.09-4.5.13-8.93,2.54-13.4,3.92l.1-.07L344.94,362ZM676,515.41l0,0c.35-.67.7-1.34,1-2l0,.07,1-2,0,.06,1-3,0,0,1-2-.05.06L681.67,490l-.76-1.13a6.56,6.56,0,0,0-.09-.88l-.09-2.81-3.92-9.76c5.2-1.83,9.39.54,13.58,2.71,3.21,1.67,6,1.73,8.06-1.61s.46-5.9-2.2-8c-12.75-9.93-37-3.2-42.59,12-.69,1.89.21,5.68,1.67,6.64s4.76-.05,7-.92c1.51-.61,2.52-2.45,3.92-3.9.87,1,1.57,1.88,2.28,2.73,3,9.65,2.65,18.69-4.07,27-1.56,1.94-2.1,5.07-2.14,7.67a5.76,5.76,0,0,0,3,4.43c1.36.57,4-.08,5.16-1.15,2.12-1.91,3.59-4.54,5.33-6.87A1.8,1.8,0,0,0,676,515.41ZM497.41,399.14l-.09-.13,4,4-.1-.08c1.6.72,3.18,2,4.81,2.06,6.29.23,12.6.07,18.9.06l-.1-.07,6.12.92-.12-.15c7.39,2.06,14.75,4.23,22.19,6.08,1.24.31,2.84-.78,4.27-1.23l-.11.1,2.17-1.3c5.39-5.52,5.6-11,.62-16.76l-3.46-2.28-4.18-2.58c-8.75-5.51-18.48-5.95-28.41-5.34-2.1-.16-4.19-.4-6.29-.47-6.13-.21-12.33-.71-17.54,3.53l-1,1q-1.41,5-2.81,10C496.68,397.34,497.05,398.24,497.41,399.14ZM386,489.71c.78,8.76,4,16,11.35,20.47,5.25,3.15,11.21,5.28,17.05,7.32,5.37,1.87,8.59.31,9.94-3.9,1.25-3.92-.53-6-6.12-8.21-5.32-2.09-10.75-4.14-15.58-7.08s-5-5.79-2-10.61c1.31-2.06,2.55-4.17,3.92-6.2q15.84-23.53,31.72-47.06c3.13-4.66,1.37-9.51-3.83-10.48-4-.76-6.57,1.65-8.52,4.6Q406.36,455.08,389,481.72C387.51,484.07,387,487,386,489.71Zm53.28,82.48c19.81-.61,35.89-4.56,50.73-12.88a91.66,91.66,0,0,0,11.39-7.64c3.28-2.54,3.26-6,.82-9.06-2.26-2.8-5.38-2.77-8.38-.89-2.08,1.31-4.07,2.76-6.12,4.1-13.84,9-29.48,13-45.65,14.25-6,.48-12.34-2-18.5-3.3-4.57-.94-8.29.67-9.18,4.16-1,3.81,1.46,7.26,6.3,8.19C427.7,570.47,434.83,571.48,439.23,572.19Zm-51-131.75c-1.08-3.86-1.62-8-3.34-11.53-4.67-9.62-14.91-10.34-21.29-1.79-5.88,7.89-6.38,19-.83,26.92,2.19,3.14,5.18,5.2,9.63,4.84C381.63,458.13,387.6,448.44,388.23,440.44ZM507.7,452.68l.81.5c.58,3,.79,6.12,1.83,8.95,1.7,4.64,10.61,9.58,13.9,8.13,11.57-5.09,16.27-21,9.32-31.62-5.24-8-15-8.52-20.13-.49C510.67,442.46,509.56,447.81,507.7,452.68Z"/><path class="cls-9" d="M719.63,469.55c-2.11-5.84-3.53-12.08-6.56-17.42-2.56-4.49-7-7.94-10.59-11.85-.17-.61-.13-1.55-.53-1.79-8.09-4.92-16.93-7.4-26.33-5.83-3.42.57-8.34-1.06-10.17,4l-.08,0-2.12,1,.09-.08-2.19.86.08-.06-3,2.13.09-.09-6.2,3.42,1.21,1.36c-9.14,8-15.46,18.16-22,28.17-2.46,3.74-6.45,6.49-9.74,9.69-7.75-2.72-9.18-4.29-8.77-12.79.73-15,1.48-30,3.08-44.9,1.79-16.71.37-33.23-1.26-49.8,0-.28-1.09-.47-1.67-.7l-1.14-3.95-8.05-34c-1.74-4.32-3.21-8.78-5.29-12.93-4.7-9.39-9.84-18.54-18.38-25.23C576.41,296,573,292.9,569,290.8c-11.64-6.12-24.49-8.17-37.34-10.05l-1.2-.41,0,0c-.77-.43-1.5-1.17-2.31-1.25-13.94-1.36-27.89-3.54-41.85-3.73-26.05-.36-52.12.17-78.16.94-8.4.25-16.75,2.38-25.1,3.75-.49.08-.83,1-1.25,1.58l-14.93,5.2.07-.06-4,2,.09-.07-5.22,3-2.7,1.8-3.28,2.73h-.09L350,297.59l.09,0c-.38.34-.75.69-1.12,1l.07-.11-2,2,.11-.06L346,301.52l.09-.09-1.05,1.08.06-.07-1.35,1.81.16-.09-1,1.22.14-.12-1,1.15.06-.08-3.15,4.9.11-.11q-3.47,7.39-6.91,14.8l.06-.07L331,329.7h.12l-1.17,2.89.18,0q-3.43,14.26-6.89,28.52l-1.7,6a2.62,2.62,0,0,1-.2.87c-.26,2.3-.51,4.6-.77,6.91l.06-.08-1.07,7.91a3,3,0,0,1-.2.88l-.78,8.9a2.56,2.56,0,0,1-.19.86q-1.84,21.82-3.65,43.65c0,.39.46.82.7,1.24l0,1.95-2.8,1.94-2-.94-1.15-.94c-5.15-3.18-3.3-8.76-4.62-13.25a15.06,15.06,0,0,1,0-3.72c-6.64,1.67-12.85,3.42-19.15,4.77a52,52,0,0,1-40-7.29,23.85,23.85,0,0,1-3.77-3.12c-4.25-4.2-4-7.27,1.16-10.64,3.14-2.07,6.44-3.9,9.73-5.74,15-8.4,24.33-21.47,31.32-36.52,1.58-3.4,3-6.89,4.1-9.51-9.72-2.76-18.69-4.65-27.14-7.87a49.83,49.83,0,0,1-23.4-17.94,26.68,26.68,0,0,1-2.21-3.8c-4-8.45-2.21-11.35,7-11.26,16.92.16,28.84-8.67,38.32-21.29,8-10.68,15.35-21.85,23.11-32.71,2.34-3.27,5.12-6.24,7.82-9.5-7-6.23-15.44-8.81-24.08-10.79-4.78-1.09-9.67-1.73-14.45-2.79-6.64-1.48-8-4-3.8-9.38,4.72-6.15,9.87-12.3,15.95-17,17.22-13.45,37.21-19.32,59.15-18.67,1.64,0,3.29,0,4.93,0a3.64,3.64,0,0,0,.91-.26c-1.86-6.44-4.55-12.77-5.38-19.34a89.44,89.44,0,0,1-.18-23.57c1.37-9.62,7.69-11.24,14.79-4.51,14,13.22,30.72,16.18,49.26,14,19.33-2.29,38.29-7.69,58.06-6.34a317.12,317.12,0,0,1,63.82,10.82c18.94,5.28,37,12.42,52.85,24.14,7.58,5.61,14.47,12.16,21.57,18.39,4.12,3.63,8.05,7.47,12.67,11.79,0-6.82-.42-13.1.17-19.29.32-3.43,2.32-6.7,3.57-10,3,1.58,6.59,2.62,9,4.84,11.92,10.74,18.38,24.51,21.51,40.63a47.77,47.77,0,0,0,4.16-2.74,48.26,48.26,0,0,1,23.45-10.57c5.43-.88,9,2.7,8.38,8.25-1.14,11-7.8,19.06-14.48,27.11-.89,1.08-2.44,1.63-4.49,2.93,17.43,7.95,30.15,19.16,39.57,33.45,8,12.18,14.84,25.2,21.66,38.12,6.41,12.17,12.53,24.42,24.93,31.9a87.6,87.6,0,0,0,9.61,4.89c5,2.22,6.24,5,4,10-3.94,8.67-11.13,14-19.61,17.6-7,3-14.47,5.1-22.17,7.76A90.78,90.78,0,0,0,743.35,431c4.62,5.63,10.31,10.4,15.51,15.57,4.11,4.08,4.14,5.74.13,9.74-7.14,7.13-16.33,10.05-25.88,12.13-2.55.55-5.18.75-7.78,1.11l-2.05.74h-1.9Z"/><path class="cls-2" d="M659.49,697.8c.9,5.06,1.9,10.12,2.67,15.2,2.17,14.31,1.35,28.64.11,43-.31,3.55-.12,7.15-.16,10.73-.07,6-.54,6.53-6.42,6.44-17.18-.28-34.36-.66-51.54-.92a31.41,31.41,0,0,0-5.23.76H591l10.14-28.76c-5.08,2-9.49,3.88-13.93,5.6-19.42,7.56-39.6,12.09-60.28,14.62-4.36.53-8.74,1.68-13.07,1.51a8.81,8.81,0,0,1-6.42-3.86c-1.32-2.48-.9-6.09,2.62-7.35a29.27,29.27,0,0,1,9.47-2c30.05-.25,57.55-9.53,83.91-22.91a5,5,0,0,0,2.46-2.72c3.35-13,6.55-26,9.78-39a50.81,50.81,0,0,0,.67-5.73c0-33.66,0-67.31.14-101,0-2.45,1.11-4.9,1.71-7.34-.2,2.26-.56,4.52-.56,6.78,0,23.39,0,46.78-.11,70.17,0,3.47,1,5.1,4.4,6.27,12.19,4.16,23,10.29,29.4,22.1,0,.25,0,.51,0,.77l.84,1.18.06.1c.39.92.77,1.84,1.16,2.75v0l1,2,0,0c1,2.29,2,4.57,3,6.86h0l1,2h-.05c.34,1,.68,2,1,2.94Z"/><path class="cls-10" d="M384.66,774.37l-30.86-1,8.91-.42c-10.36-.75-20.69-.8-31-.71a48.13,48.13,0,0,0-6.18.79H305.15c6.32-20.86,12.48-41.15,18.64-61.45,21.7-10.69,43.38-21.43,65.12-32,5.43-2.65,11-5,16.57-7.4.37,3.42.74,6.83,1.12,10.25-.53,2.87-1,5.75-1.6,8.6-2.14,9.82-4.34,19.63-6.52,29.44l-3.21,13.46c-1.55,6.07-3.07,12.16-4.66,18.22C388.66,759.52,386.64,766.94,384.66,774.37Z"/><path class="cls-10" d="M651.3,680.21c0-.26,0-.52,0-.77,12.66,5.8,25.41,11.4,37.94,17.45,19.36,9.35,38.58,19,57.83,28.57,2.19,1.08,4.19,2.54,6.28,3.83q-4.85,25.38-9.7,50.77l-.17-.06a.48.48,0,0,1-.39-.53c-6-1.12-11.86-2.83-17.86-3.25-14.52-1-29.09-1.37-43.63-2.13-5.67-.29-11.33-.93-17-1.41a5.64,5.64,0,0,1-.42-1.53c.6-17,1.24-34,1.78-50.95,0-.78-.86-1.58-1.31-2.38q-2.61-10-5.21-20l-.18.1c-.35-1-.69-2-1-2.94h.05c-.34-.66-.68-1.31-1-2h0c-1-2.29-2-4.57-3-6.86l0,0c-.35-.66-.69-1.32-1-2v0c-.39-.91-.78-1.83-1.16-2.75l-.06-.1Z"/><path class="cls-4" d="M649.25,550.8c.6-3.11,1.2-6.22,1.77-9.33,1-5.11,3.54-7.64,7.81-7.61s7.57,3,8.13,8a71.85,71.85,0,0,1,0,7.51h3c-3.45,2.65-3.66,3.62-2.48,12.68,9.36,0,18.56.83,17.2,14l-45.33-.2c-.16-9.74.83-11.1,10.63-14.27v-8.64l-4.59-.73Z"/><path class="cls-4" d="M684.75,644.08c.1,8.2-2.66,10.93-11.06,10.94q-11.55,0-23.1,0c-9,0-11.3-2.28-11.21-11.18l1.18-1.15c5.86-4.87,11.85-9.6,17.52-14.67,2.62-2.35,4.4-2.18,6.94,0,5.41,4.62,11.06,9,16.61,13.42Z"/><path class="cls-11" d="M618.21,574.12c-.6,2.44-1.71,4.89-1.71,7.34-.13,33.66-.09,67.31-.14,101a50.81,50.81,0,0,1-.67,5.73l-2.84,1.36c.64-2.59,1.84-5.19,1.85-7.79q.19-50.37.07-100.75c0-3.71.53-7.06,4.24-9Z"/><path class="cls-12" d="M638.3,576.92l.9,63.47-1.76,3.78c0-22.4,0-43.73,0-65.06A6.79,6.79,0,0,1,638.3,576.92Z"/><path class="cls-13" d="M311.48,463.65q-.63,6.25-1.24,12.5-1.2,15.24-2.41,30.47,0,11.67.07,23.34.77,7.34,1.52,14.67l-2.68-5.82q0-23.44,0-46.87c.63-4.75,1.35-9.51,1.88-14.27.46-4,.63-8.07,1.12-12.08C309.81,464.88,310.87,464.29,311.48,463.65Z"/><path class="cls-14" d="M306.72,491.94q0,23.43,0,46.87c-.69-1.24-1.95-2.46-2-3.7-.15-12-.2-23.93,0-35.89C304.82,496.78,306,494.37,306.72,491.94Z"/><path class="cls-4" d="M684.92,643.26l-.27-67.37c.39,1.16,1.12,2.32,1.12,3.48q.11,30.38,0,60.76A12.16,12.16,0,0,1,684.92,643.26Z"/><path class="cls-13" d="M406.6,682.36c-.38-3.42-.75-6.83-1.12-10.25,0-9.49,0-19-.1-28.46a65.42,65.42,0,0,0-.71-6.66l1.82.53q.42,9.68.83,19.36,0,12.72-.1,25.46Z"/><path class="cls-15" d="M714.46,508.84c1-3.88,2.35-7.71,2.89-11.65,1.12-8.24,1.81-16.54,2.68-24.81q-.57,12.15-1.13,24.29Z"/><path class="cls-13" d="M718.9,496.67q.55-12.15,1.13-24.29c-.13-.94-.27-1.89-.4-2.83l1.75.74c0,7,.13,14.08-.15,21.1C721.15,493.18,719.71,494.91,718.9,496.67Z"/><path class="cls-5" d="M312.56,442.12l2.8-1.94-2,4Z"/><path class="cls-4" d="M669.93,549.48l3-1Z"/><path class="cls-13" d="M723.28,470.28l2.05-.74Z"/><path class="cls-4" d="M672.89,548.53l1.89-1Z"/><path class="cls-13" d="M403.63,636.68l1,.41Z"/><path class="cls-5" d="M309.44,440.24l1.15.94Z"/><path class="cls-10" d="M591,773h7.91l17.12.95-7.14.48c0,.24,0,.48,0,.73h42.33l2.92,2.17-6.06,2c4.72,2.83,9.54,4.89,7.54,11.06l-3.77-1.21c-.46,1.24-.93,2.5-1.68,4.54l6.48-1.57c-1.42,1.8-2,2.72-2.8,3.5-2.73,2.78-8.32,4-4.84,10,.5.86-1.6,3.2-2.51,4.89,1.42.74,4.22,1.31,5.26,3s.15,4.44.52,6.66c.27,1.69,1.19,3.28,2.12,5.66-.28.24-1.1,1.6-2.1,1.74-4.63.67-4.22,3.16-3.41,6.71.64,2.84.17,6-.12,9-.27,2.77-1,5.49-1.56,8.7l-5.09.65a68.27,68.27,0,0,0,1.33,8c1.41,4.85-1.73,5.11-5.05,5.24-2.43.09-4.86,0-7.29,0l-.06,1.52,4.74,1.13,0,.94c-6,0-12.06.28-18-.13-2.4-.16-5.89.57-6.86-3.3-.1-.39-1.73-.7-2.57-.56-2.9.5-5.77,1.21-9.93,2.12,1.39.93,2.53,1.56,3.52,2.37s2,1.89,2.94,2.85l-9.8.85c-9,0-18,.12-26.94-.06-.9,0-1.77-1.71-2.65-2.63,3.57-16.49,6.6-33.11,10.86-49.43S586.06,789.11,591,773Z"/><path class="cls-2" d="M564.49,875.66c11.28-.21,22.57-.48,33.86-.61,2.76,0,5.53.53,8.29.62,12.62.37,25.24.76,37.86.93,3.16,0,4,1.33,3.79,4.12-.73,8-1.48,16.09-2.1,24.14-.5,6.48-6.33,6.54-10.36,7.74-11.12,3.34-22.46,6.06-33.81,8.57-11.19,2.49-22.45,4.76-33.79,6.35-2.52.35-6.85,2.58-8.78-2,0-2.61,0-5.23.07-7.85.29-1,.59-1.94.88-2.91q1.05-12.71,2.09-25.41c.32-1.61.63-3.21.94-4.82l.93-3c0-1,0-1.93,0-2.89Z"/><path class="cls-2" d="M395.27,733.86l3.21-13.46c9.5,9.51,20.08,17.43,32.7,22.6,13.64,5.59,27.52,10.21,42.32,11.63.61,2.91,2.25,6,1.67,8.68-3.94,18.17-8.81,36.16-12.46,54.38-3,14.89-4.67,30-7,45-1.77,11.5-3.64,23-5.42,34.49-1.51,9.74-3,19.49-4.43,29.24-4-.32-8.27.06-9.91-4.86,1.48-11.37,2.81-22.75,4.49-34.09,1.61-10.85,3.61-21.65,5.37-32.49,2.94-18.16,5.58-36.38,8.84-54.49,1.79-10,4.56-19.84,6.93-29.75.85-3.58,1.1-6.11-4-7.07a132.65,132.65,0,0,1-41.25-15.07C408.92,744.39,402.27,738.83,395.27,733.86Z"/><path class="cls-16" d="M473.5,754.63c-14.8-1.42-28.68-6-42.32-11.63-12.62-5.17-23.2-13.09-32.7-22.6,2.18-9.81,4.38-19.62,6.52-29.44.62-2.85,1.07-5.73,1.6-8.6l.62,0,1.89,9-.19.07c.4.65.8,1.29,1.19,1.94l-.08-.07,2.18,2.91V696l1,1.3c9.07,8.52,20.55,12.44,32,16.26,5.11,1.7,10.41,2.86,15.63,4.22,9.11,2.39,17.19,6.51,23.47,13.65C476.87,737.41,474.8,745.85,473.5,754.63Z"/><path class="cls-2" d="M490.83,831.77c-10.27.85-16.22-8.24-15.91-15.4.46-10.62,6-16,15.82-16.41,9.29-.41,16.3,6,16.35,16.14C507.13,825.16,500.24,831.77,490.83,831.77Z"/><path class="cls-15" d="M492.46,725.51c3.46-1.37,6.82-3.17,10.41-4,4.09-.93,8.42-.73,12.57-1.46,13.59-2.35,27.13-4.92,40.7-7.36a11.17,11.17,0,0,1,2.44.09c-11.75,2.54-23.45,5.28-35.24,7.57C513.1,722.35,502.75,723.81,492.46,725.51Z"/><path class="cls-15" d="M558.56,713l17.83-6Z"/><path class="cls-4" d="M563.43,884.51c-.31,1.61-.62,3.21-.94,4.82C562.81,887.72,563.12,886.12,563.43,884.51Z"/><path class="cls-15" d="M576.35,707.1l5.88-2.24Z"/><path class="cls-15" d="M582.15,704.93l4.13-1.83Z"/><path class="cls-4" d="M560.4,914.74c-.29,1-.59,1.94-.88,2.91C559.82,916.68,560.11,915.71,560.4,914.74Z"/><path class="cls-15" d="M586.2,703.17l2.94-1.23Z"/><path class="cls-4" d="M564.41,878.65c0,1,0,1.93,0,2.89C564.38,880.58,564.4,879.61,564.41,878.65Z"/><path class="cls-16" d="M486.17,730.06l1.05-.9.3.77Z"/><path class="cls-15" d="M589.07,702l2.09-1Z"/><path class="cls-15" d="M591,701.07l2.28-1Z"/><path class="cls-16" d="M485.05,731.08l1.23-1.07Z"/><path class="cls-1" d="M395.27,733.86c7,5,13.65,10.53,21.08,14.77A132.65,132.65,0,0,0,457.6,763.7c5.09,1,4.84,3.49,4,7.07-2.37,9.91-5.14,19.75-6.93,29.75-3.26,18.11-5.9,36.33-8.84,54.49-1.76,10.84-3.76,21.64-5.37,32.49-1.68,11.34-3,22.72-4.49,34.09-1.23,3-3.48,3.27-6.34,2.62-22.73-5.16-45.27-10.93-67.12-19.15-3.37-1.26-4.33-2.43-3.48-6.27,2.06-9.24,3.26-18.66,4.8-28,2.07-11.42,3.77-22.93,6.31-34.26,3.73-16.69,8.08-33.25,12.09-49.88,1-4,1.63-8.17,2.44-12.26,2-7.43,4-14.85,5.95-22.29C392.2,746,393.72,739.93,395.27,733.86Z"/><path class="cls-7" d="M320.49,870.65l42.81,1.88c-1.53,6.07-2.9,11.48-4.27,16.88.44-3.5.51-7.11,1.41-10.49,1.05-3.88.22-5.16-4-5.28-16.65-.44-33.29-1.2-49.94-1.89a12.15,12.15,0,0,1-2.72-.79Z"/><path class="cls-7" d="M325.51,773a48.13,48.13,0,0,1,6.18-.79c10.33-.09,20.66,0,31,.71l-8.91.42Z"/><path class="cls-7" d="M275.82,774h9.76v.31H255.39Z"/><path class="cls-4" d="M673.94,876.44H649.71c1.34-11.24,2.52-21.09,3.7-31-.14,5.57-.2,11.14-.45,16.71a50.8,50.8,0,0,1-.92,6.71c-1,5.78-1.07,5.78,5.06,5.79,4.27,0,8.55-.13,12.81.09C671.28,874.86,672.6,875.86,673.94,876.44Z"/><path class="cls-7" d="M651.25,775.14H608.92c0-.25,0-.49,0-.73l7.14-.48,35.2.44C651.24,774.63,651.24,774.88,651.25,775.14Z"/><path class="cls-7" d="M595,873.55l9.8-.85h20.94l-4,1.58Z"/><path class="cls-10" d="M652.4,805.93l-1.17-5.67,2.11-.4.93,5.72Z"/><path class="cls-10" d="M633.12,871.73l.83,1.12c-.36.24-.73.67-1.07.65s-.6-.54-.89-.84Z"/><path class="cls-10" d="M657.76,802.71c-.26.1-.59.35-.78.27s-.22-.49-.32-.75c.26-.1.59-.34.77-.26S657.66,802.45,657.76,802.71Z"/><path class="cls-10" d="M653.81,831c-.26.1-.59.34-.78.26s-.22-.48-.32-.74c.26-.11.59-.35.77-.27S653.71,830.77,653.81,831Z"/><path class="cls-7" d="M359.06,889.36l-2,10.81Z"/><path class="cls-7" d="M357.13,900.13l-1,3.13Z"/><path class="cls-7" d="M664.7,717.82c.45.8,1.33,1.6,1.31,2.38-.54,17-1.18,34-1.78,50.95a5.64,5.64,0,0,0,.42,1.53c5.66.48,11.32,1.12,17,1.41,14.54.76,29.11,1.11,43.63,2.13,6,.42,11.91,2.13,17.86,3.25l-79.35-5.65C664.08,755.41,664.39,736.62,664.7,717.82Z"/><path class="cls-17" d="M531.63,280.74c12.85,1.89,25.7,3.94,37.34,10.06,4,2.1,7.44,5.21,11.14,7.86-2.14,2.67-4.34,5.29-6.4,8-5.33,7.06-5.23,16,1,22.23,8,8,17.29,12.67,29,7.91q4,17,8.05,34L608.92,372c-3.16,2.11-6.76,3.79-9.37,6.43-5.07,5.14-7.83,4.59-11.15-1.86-2-3.89-5.47-7-8.29-10.53l-1-1,0,0-3-1h0c-4.77-1.9-9.39-1.87-13.8,1l.06-.05-3,1.23c-1.14.58-2.26,1.23-3.45,1.73-8,3.36-9.51,2.31-10.82-6.15-.48-3.16-2.38-6.1-3.63-9.15l-2-1.33.07.05c-.69-.64-1.26-1.64-2.06-1.87-8.23-2.27-16.05-.88-23.57,2.82h.05l-2,1,.05-.07-6,2h0l-4.26,2.12-31.46,14.71c.17-2.7,0-3.64.31-4.43,2.78-7.62,5.24-15.39,8.66-22.72,1.67-3.57,4.87-6.67,8-9.28,2.95-2.49,7-3.67,10-6.15,5.16-4.33,8-9.85,6.07-16.84-2-7.16.49-12.27,7.5-15a20.77,20.77,0,0,1,4.28-1.06c10.17-1.51,13.14-4.31,15.46-14.68l.21-1.05C531.13,280.9,531.38,280.82,531.63,280.74Z"/><path class="cls-18" d="M407.32,656.88q-.42-9.69-.83-19.36c20.14,4.12,40.43,6.67,61,5.73a168.82,168.82,0,0,0,80.11-24.11c1-.59,1.94-1.23,3-1.76,3.25-1.71,6.58-2.74,9.26.77,1.95,2.54.7,7.59-2.67,9.94-7.65,5.32-15.26,10.75-23.28,15.49-26.43,15.59-55,23.39-85.91,22.2a117.74,117.74,0,0,1-39.65-8.69Z"/><path class="cls-19" d="M386,489.71c1-2.68,1.56-5.64,3.08-8Q406.3,455,423.91,428.56c1.95-2.95,4.52-5.36,8.52-4.6,5.2,1,7,5.82,3.83,10.48Q420.43,458,404.54,481.5c-1.37,2-2.61,4.14-3.92,6.2-3,4.82-2.92,7.64,2,10.61s10.26,5,15.58,7.08c5.59,2.2,7.37,4.29,6.12,8.21-1.35,4.21-4.57,5.77-9.94,3.9-5.84-2-11.8-4.17-17.05-7.32C389.91,505.74,386.73,498.47,386,489.71Z"/><path class="cls-19" d="M439.23,572.19c-4.4-.71-11.53-1.72-18.59-3.07-4.84-.93-7.26-4.38-6.3-8.19.89-3.49,4.61-5.1,9.18-4.16,6.16,1.26,12.46,3.78,18.5,3.3,16.17-1.29,31.81-5.22,45.65-14.25,2.05-1.34,4-2.79,6.12-4.1,3-1.88,6.12-1.91,8.38.89,2.44,3,2.46,6.52-.82,9.06A91.66,91.66,0,0,1,490,559.31C475.12,567.63,459,571.58,439.23,572.19Z"/><path class="cls-9" d="M394.77,363l.8.87,1,2.12,0-.06c0,3,0,6,0,9l.06-.06-2.06,2.95h0c-2.34.56-4.89,2-7,1.55-11.91-2.77-24-2.91-36-2.53-4.67.15-7-2.07-8-6.17a44.22,44.22,0,0,1-.58-5.77l-.1.09,1.14-2L344,363l1-1.14-.11.12,1.12-1.08-.1.07c6.75-.94,13.54-2.82,20.24-2.57,9.19.34,18.31,2.31,27.46,3.58l-.09-.05Z"/><path class="cls-4" d="M388.23,440.44c-.63,8-6.6,17.69-15.83,18.44-4.45.36-7.44-1.7-9.63-4.84-5.55-8-5-19,.83-26.92,6.38-8.55,16.62-7.83,21.29,1.79C386.61,432.46,387.15,436.58,388.23,440.44Z"/><path class="cls-4" d="M507.7,452.68c1.86-4.87,3-10.22,5.73-14.53,5.13-8,14.89-7.51,20.13.49,7,10.6,2.25,26.53-9.32,31.62-3.29,1.45-12.2-3.49-13.9-8.13-1-2.83-1.25-6-1.83-8.95Z"/><path class="cls-18" d="M680.82,488a6.56,6.56,0,0,1,.09.88l-.06,1.07c0,.32,0,.64-.05,1-2.76,1.72-7.78-.81-8.18,3l-4.13-8.75c-.71-.85-1.41-1.7-2.28-2.73-1.4,1.45-2.41,3.29-3.92,3.9-2.2.87-5.46,1.91-7,.92s-2.36-4.75-1.67-6.64c5.61-15.24,29.84-22,42.59-12,2.66,2.07,4.31,4.58,2.2,8s-4.85,3.28-8.06,1.61c-4.19-2.17-8.38-4.54-13.58-2.71l3.92,9.76Z"/><path class="cls-20" d="M668.49,485.16l4.13,8.75c.4-3.8,5.42-1.27,8.18-3l-.87,15.74.05-.06-1,2,0,0-1,3,0-.06-1,2,0-.07c-.34.67-.69,1.34-1,2l0,0c-.14.05-.39.1-.39.17a2.82,2.82,0,0,0,.1.7c-1.74,2.33-3.21,5-5.33,6.87-1.19,1.07-3.8,1.72-5.16,1.15a5.76,5.76,0,0,1-3-4.43c0-2.6.58-5.73,2.14-7.67C671.14,503.85,671.51,494.81,668.49,485.16Z"/><path class="cls-5" d="M381.71,281.65c.42-.55.76-1.5,1.25-1.58,8.35-1.37,16.7-3.5,25.1-3.75,26-.77,52.11-1.3,78.16-.94,14,.19,27.91,2.37,41.85,3.73.81.08,1.54.82,2.31,1.25l-38.12-3.06L485.4,277a11.45,11.45,0,0,0-2.79-.71q-25.38,0-50.77,0a12.45,12.45,0,0,0-2.8.69l-5.87.27h-4l-2,.07Z"/><path class="cls-5" d="M613,374.8c.58.23,1.64.42,1.67.7,1.63,16.57,3.05,33.09,1.26,49.8-1.6,14.91-2.35,29.92-3.08,44.9-.41,8.5,1,10.07,8.77,12.79-8.67,1.1-10.06-4.82-10.75-11.57-.5-5,0-10,.07-15.06l0,0c.2-1.14.41-2.29.61-3.43.73-7.83,1.36-15.68,2.22-23.5A235.11,235.11,0,0,0,613,374.8Z"/><path class="cls-15" d="M318.34,393.34a2.56,2.56,0,0,0,.19-.86l.78-8.9a3,3,0,0,0,.2-.88q.53-4,1.07-7.91l-.06.08c.26-2.31.51-4.61.77-6.91a2.62,2.62,0,0,0,.2-.87c.56-2,1.13-4,1.7-6q3.45-14.25,6.89-28.52c-1.35,6.78-3,13.51-4,20.33-2.07,14.51-4,29.05-5.56,43.62-1.33,12.34-2,24.75-3.11,37.12-.08.9-1.05,1.72-1.61,2.58.52-6.59,1.16-13.18,1.54-19.78C317.8,408.77,318,401.05,318.34,393.34Z"/><path class="cls-5" d="M560,392.6c5,5.79,4.77,11.24-.62,16.76l-2.17,1.3.11-.1c-3.8-.46-7.64-.71-11.39-1.43-5.06-.95-10-2.26-15.07-3.42l.12.15-6.12-.92.1.07a8.76,8.76,0,0,0-2.5-1c-7.07-.44-14.14-.79-21.21-1.16l.1.08L500,401.51a39,39,0,0,0,5.77.55c14.91-.75,29.23,1.94,43.39,6.46,8.1,2.59,12.67-.73,12.53-8.37,0-2.28-1.46-4.54-2.26-6.81A3.84,3.84,0,0,0,560,392.6Z"/><path class="cls-5" d="M343,364.85a44.22,44.22,0,0,0,.58,5.77c.94,4.1,3.29,6.32,8,6.17,12.08-.38,24.13-.24,36,2.53,2.08.48,4.63-1,7-1.55-1.15,3.76-4.19,4.2-7.4,3.82-4.14-.49-8.25-1.3-12.37-2a11.2,11.2,0,0,0-3-.95c-7.95-.11-15.89-.11-23.83-.15C342.54,376.32,340.76,371.42,343,364.85Z"/><path class="cls-15" d="M613,374.8a235.11,235.11,0,0,1,.81,54.59c-.86,7.82-1.49,15.67-2.22,23.5.14-5.23.29-10.46.4-15.7.31-15.77.7-31.53.84-47.3a83.52,83.52,0,0,0-1.16-13.47c-.25-1.57-1.78-2.94-2.73-4.4l2.92-1.17Z"/><path class="cls-5" d="M552.35,387.74l4.18,2.58-.11.13c-1.58-.37-3.18-.68-4.74-1.12-16.89-4.82-33.88-8.27-51.47-3.76l-.1-.11c5.21-4.24,11.41-3.74,17.54-3.53,2.1.07,4.19.31,6.29.47Z"/><path class="cls-5" d="M393.66,362c-9.15-1.27-18.27-3.24-27.46-3.58-6.7-.25-13.49,1.63-20.24,2.57,4.47-1.38,8.9-3.79,13.4-3.92,10.57-.32,21.38-1.4,31.51,3.09A20.06,20.06,0,0,1,393.66,362Z"/><path class="cls-15" d="M381.71,281.65l35.51-4.28c-.69.55-1.38,1.58-2.07,1.59a163.35,163.35,0,0,0-47.4,7.9,3.16,3.16,0,0,1-1,0Z"/><path class="cls-21" d="M423.17,277.29,429,277H485.4l6.86.29c0,.25,0,.5,0,.76H423.17C423.16,277.8,423.16,277.54,423.17,277.29Z"/><path class="cls-5" d="M318.34,393.34c-.32,7.71-.54,15.43-1,23.14-.38,6.6-1,13.19-1.54,19.78-.14.65-.29,1.31-.43,2-.24-.42-.73-.85-.7-1.24Q316.48,415.17,318.34,393.34Z"/><path class="cls-5" d="M665.45,436.66c1.83-5.06,6.75-3.43,10.17-4,9.4-1.57,18.24.91,26.33,5.83.4.24.36,1.18.53,1.79l-9.19-4a33,33,0,0,0-24.48-.18v-.18Z"/><path class="cls-15" d="M492.26,278.06c0-.26,0-.51,0-.76l38.12,3.06,0,0a.84.84,0,0,0,.44.62l-.21,1.05Z"/><path class="cls-22" d="M514,352.4c7.52-3.7,15.34-5.09,23.57-2.82.8.23,1.37,1.23,2.06,1.87a38.36,38.36,0,0,0-21.78.52A18.69,18.69,0,0,1,514,352.4Z"/><path class="cls-15" d="M407.32,656.88l1,.21q.38,17.11.77,34.21l-1.89-9Z"/><path class="cls-15" d="M307.83,506.62q1.2-15.24,2.41-30.47c.08,3.75.44,7.51.19,11.23-.44,6.44-1.26,12.85-1.92,19.26Z"/><path class="cls-15" d="M501.24,402.89c7.07.37,14.14.72,21.21,1.16a8.76,8.76,0,0,1,2.5,1c-6.3,0-12.61.17-18.9-.06C504.42,404.89,502.84,403.61,501.24,402.89Z"/><path class="cls-15" d="M552.35,387.74l-28.41-5.34C533.87,381.79,543.6,382.23,552.35,387.74Z"/><path class="cls-15" d="M348,378.52c7.94,0,15.88,0,23.83.15a11.2,11.2,0,0,1,3,.95c-7.45,0-14.9.09-22.34,0A20.1,20.1,0,0,1,348,378.52Z"/><path class="cls-15" d="M530.85,405.71c5,1.16,10,2.47,15.07,3.42,3.75.72,7.59,1,11.39,1.43-1.43.45-3,1.54-4.27,1.23C545.6,409.94,538.24,407.77,530.85,405.71Z"/><path class="cls-15" d="M668.81,436.05a33,33,0,0,1,24.48.18Z"/><path class="cls-21" d="M307.83,506.62l.68,0q-.3,11.67-.61,23.32Q307.87,518.29,307.83,506.62Z"/><path class="cls-15" d="M332.19,325.92q3.45-7.4,6.91-14.8Q335.64,318.52,332.19,325.92Z"/><path class="cls-5" d="M496.32,396.43q1.4-5,2.81-10l.11.1-.42,13.85-1.5-1.37.09.13C497.05,398.24,496.68,397.34,496.32,396.43Z"/><path class="cls-17" d="M679.93,506.67l.87-15.74c0-.33,0-.65.05-1l.82.06Z"/><path class="cls-22" d="M562.39,365.12c4.41-2.87,9-2.9,13.8-1Z"/><path class="cls-5" d="M396.58,374.89c0-3,0-6,0-9C399.13,368.9,399.35,371.89,396.58,374.89Z"/><path class="cls-5" d="M653.37,445.13l-1.21-1.36,6.2-3.42Z"/><path class="cls-15" d="M665.45,436.66l3.36-.79-8.93,4.21,1.35-1.77-.08.06,2.19-.86-.09.08,2.12-1Z"/><path class="cls-15" d="M357.68,291.69l5.22-3Z"/><path class="cls-15" d="M339,311.23l3.15-4.9Z"/><path class="cls-15" d="M497.32,399l1.5,1.37.05,0,1.13,1.1,0,.06,1.37,1.46Z"/><path class="cls-22" d="M506.12,355.33l6-2Z"/><path class="cls-15" d="M524.85,404.94l6.12.92Z"/><path class="cls-15" d="M362.81,288.79l4-2Z"/><path class="cls-22" d="M501.89,357.44l4.26-2.12Z"/><path class="cls-5" d="M394.58,377.78l2.06-2.95Z"/><path class="cls-5" d="M556.53,390.32,560,392.6a3.84,3.84,0,0,1-.59.74l-3-2.89Z"/><path class="cls-15" d="M351.7,296.22l3.28-2.73Z"/><path class="cls-5" d="M661.23,438.31l-1.35,1.77-1.61.36Z"/><path class="cls-15" d="M412.21,696.15,410,693.24Z"/><path class="cls-15" d="M423.17,277.29c0,.25,0,.51,0,.77l-4-.76Z"/><path class="cls-15" d="M331,329.7l1.3-3.85Z"/><path class="cls-15" d="M347,300.49l2-2Z"/><path class="cls-15" d="M496.32,396.43c.36.91.73,1.81,1.09,2.71C497.05,398.24,496.68,397.34,496.32,396.43Z"/><path class="cls-17" d="M678,511.55l1-3Z"/><path class="cls-22" d="M559.49,366.3l3-1.23Z"/><path class="cls-22" d="M576.15,364.11l3,1Z"/><path class="cls-15" d="M329.9,332.58l1.17-2.89Z"/><path class="cls-20" d="M680.82,488l-.09-2.81Z"/><path class="cls-5" d="M396.59,366l-1-2.12Z"/><path class="cls-5" d="M344.08,363l-1.14,2Z"/><path class="cls-15" d="M350,297.59l1.63-1.36Z"/><path class="cls-17" d="M679,508.61l1-2Z"/><path class="cls-17" d="M677,513.51l1-2Z"/><path class="cls-17" d="M676,515.45c.35-.67.7-1.34,1-2C676.67,514.11,676.32,514.78,676,515.45Z"/><path class="cls-22" d="M539.58,351.4l2,1.33Z"/><path class="cls-15" d="M343.77,304.25l1.35-1.81Z"/><path class="cls-15" d="M410.11,693.31c-.39-.65-.79-1.29-1.19-1.94C409.31,692,409.71,692.66,410.11,693.31Z"/><path class="cls-15" d="M557.2,410.66l2.17-1.3Z"/><path class="cls-22" d="M512.05,353.42l2-1Z"/><path class="cls-15" d="M349,298.58c.37-.35.74-.7,1.12-1Z"/><path class="cls-5" d="M346.06,360.92,344.94,362Z"/><path class="cls-5" d="M345.05,361.88,344,363Z"/><path class="cls-5" d="M394.77,363l-1.2-1Z"/><path class="cls-22" d="M579.09,365.06l1,1Z"/><path class="cls-15" d="M413.24,697.34l-1-1.3Z"/><path class="cls-5" d="M499.13,386.43l1-1,.1.11-1,1Z"/><path class="cls-15" d="M611,456.32l0,0Z"/><path class="cls-20" d="M681.67,490l-.82-.06.06-1.07Z"/><path class="cls-17" d="M675.72,516.28a2.82,2.82,0,0,1-.1-.7c0-.07.25-.12.39-.17A1.8,1.8,0,0,1,675.72,516.28Z"/><path class="cls-15" d="M342.08,306.41l1-1.15Z"/><path class="cls-15" d="M343,305.38l1-1.22Z"/><path class="cls-15" d="M345.06,302.51l1.05-1.08Z"/><path class="cls-15" d="M346,301.52l1.07-1.09Z"/><path class="cls-8" d="M603.78,336.82c-11.73,4.76-21,.07-29-7.91-6.28-6.27-6.38-15.17-1-22.23,2.06-2.73,4.26-5.35,6.4-8,8.54,6.69,13.68,15.84,18.38,25.23C600.57,328,602,332.5,603.78,336.82Z"/><path class="cls-5" d="M319.31,383.58l-.78,8.9Z"/><path class="cls-5" d="M320.58,374.79q-.54,3.94-1.07,7.91Q320,378.74,320.58,374.79Z"/><path class="cls-5" d="M323.19,361.13c-.57,2-1.14,4-1.7,6C322.05,365.1,322.62,363.12,323.19,361.13Z"/><path class="cls-5" d="M321.29,368c-.26,2.3-.51,4.6-.77,6.91C320.78,372.56,321,370.26,321.29,368Z"/><path class="cls-5" d="M663.34,437.51l-2.19.86Z"/><path class="cls-5" d="M665.37,436.62l-2.12,1Z"/><path class="cls-5" d="M530.87,281a.84.84,0,0,1-.44-.62l1.2.41C531.38,280.82,531.13,280.9,530.87,281Z"/><path class="cls-4" d="M654.35,686.15c1,2.29,2,4.57,3,6.86C656.34,690.72,655.34,688.44,654.35,686.15Z"/><path class="cls-4" d="M652.2,681.49c.38.92.77,1.84,1.16,2.75C653,683.33,652.59,682.41,652.2,681.49Z"/><path class="cls-4" d="M658.28,695c.34,1,.68,2,1,2.94C659,696.92,658.62,695.94,658.28,695Z"/><path class="cls-4" d="M653.35,684.2c.34.66.68,1.32,1,2Z"/><path class="cls-4" d="M657.32,693c.33.66.67,1.31,1,2Z"/><path class="cls-4" d="M651.3,680.21l.84,1.18Z"/><path class="cls-23" d="M640.56,642.7c-.06-20.3,0-40.6-.24-60.9,0-3.44,1.51-4,4.47-4,11.21,0,22.42,0,33.63-.16a27.17,27.17,0,0,0,4.44-.78c0,20.57,0,40.82-.06,61.07,0,1.16-.76,2.32-1.17,3.49-5.55-4.46-11.2-8.8-16.61-13.42-2.54-2.17-4.32-2.34-6.94,0C652.41,633.1,646.42,637.83,640.56,642.7ZM653,585.44l-.89,1c-3.84,5.53-3.75,11.6-2.5,17.82l3.33,5.15-.09,0c4.6,4.81,9.66,5.14,15.48,1l-.27,0,.26.07,2.87-3.22-.07.07c4-6.06,5.06-12.32,1.3-18.9l.1-.3c-.38-.58-.76-1.15-1.13-1.73v-.08l-2.29-2.68v0c-4.09-3.66-8.45-3.91-13.05-1l.07-.06-1.17,1,.07-.12L653,585.54Z"/><path class="cls-24" d="M485.4,277H429a12.45,12.45,0,0,1,2.8-.69q25.38-.07,50.77,0A11.45,11.45,0,0,1,485.4,277Z"/><path class="cls-9" d="M499.24,386.53l1-1c17.59-4.51,34.58-1.06,51.47,3.76,1.56.44,3.16.75,4.74,1.12l3,2.89c.8,2.27,2.22,4.53,2.26,6.81.14,7.64-4.43,11-12.53,8.37-14.16-4.52-28.48-7.21-43.39-6.46a39,39,0,0,1-5.77-.55l0-.06-1.13-1.1-.05,0Z"/><path class="cls-5" d="M498.87,400.35l1.13,1.1Z"/><path class="cls-20" d="M649.62,604.29c-1.25-6.22-1.34-12.29,2.5-17.82l.89-1,0,.1,2.07-2.07-.07.12,1.17-1-.07.06,13.05,1v0c.76.89,1.52,1.79,2.29,2.68v.08l1.14,1.73-.1.3q-.64,9.45-1.3,18.9l.07-.07-2.87,3.22-.26-.07.26,0c-5.28,1.62-10.53,2.58-15.47-1H653Z"/><path class="cls-17" d="M671.13,607.33q.64-9.45,1.3-18.9C676.19,595,675.12,601.27,671.13,607.33Z"/><path class="cls-17" d="M652.86,609.42c4.94,3.59,10.19,2.63,15.47,1C662.52,614.56,657.46,614.23,652.86,609.42Z"/><path class="cls-17" d="M669.11,583.66l-13.05-1C660.66,579.75,665,580,669.11,583.66Z"/><path class="cls-17" d="M649.62,604.29l3.33,5.14Z"/><path class="cls-17" d="M668.33,610.48l2.87-3.22Z"/><path class="cls-17" d="M671.4,586.32c-.77-.89-1.53-1.79-2.29-2.68C669.87,584.53,670.63,585.43,671.4,586.32Z"/><path class="cls-17" d="M655,583.47,653,585.54Z"/><path class="cls-17" d="M653,585.44l-.89,1Z"/><path class="cls-17" d="M672.53,588.13l-1.14-1.73Z"/><path class="cls-17" d="M656.13,582.61l-1.17,1Z"/></svg>